<svg width="1440" height="550" viewBox="0 0 1440 550" fill="none" xmlns="http://www.w3.org/2000/svg">
<g clip-path="url(#clip0)">
<rect width="1440" height="550" fill="white"/>
<path fill-rule="evenodd" clip-rule="evenodd" d="M546.77 748.175C1319.71 748.175 1946.3 380.922 1946.3 -72.1067C1946.3 -525.136 1319.71 -892.388 546.77 -892.388C-226.169 -892.388 -852.759 -525.136 -852.759 -72.1067C-852.759 380.922 -226.169 748.175 546.77 748.175Z" fill="url(#paint0_radial)"/>
<path fill-rule="evenodd" clip-rule="evenodd" d="M1061.95 77.0052C641.356 -505.072 388.725 -574.497 388.725 -574.497C147.783 -586.925 217.643 -56.5953 217.643 -56.5953C217.643 -56.5953 562.084 -106.785 1061.95 475L1061.95 77.0052Z" fill="#D15430"/>
<path fill-rule="evenodd" clip-rule="evenodd" d="M1061.85 77.0052C1482.44 -505.072 1735.07 -574.497 1735.07 -574.497C1976.01 -586.925 1906.15 -56.5953 1906.15 -56.5953C1906.15 -56.5953 1561.71 -106.785 1061.85 475L1061.85 77.0052Z" fill="#73281B"/>
<path fill-rule="evenodd" clip-rule="evenodd" d="M1061.85 147.194C585.009 -417.255 287.651 -375.34 287.651 -375.34L250.747 -252.001C250.747 -252.001 553.478 -318.923 1061.85 265.183V147.194Z" fill="#D5663F"/>
<path fill-rule="evenodd" clip-rule="evenodd" d="M1061.95 147.194C1538.78 -417.255 1836.14 -375.34 1836.14 -375.34L1873.05 -252.001C1873.05 -252.001 1570.32 -318.923 1061.95 265.183V147.194Z" fill="#C5542C"/>
<path fill-rule="evenodd" clip-rule="evenodd" d="M1735.6 -576.488C1735.6 -576.488 1482.81 -507.005 1061.95 75.5557V150.863C1509.84 -387.02 1846.49 -370.711 1846.49 -370.711C1846.49 -370.711 1976.7 -588.927 1735.6 -576.488ZM388.289 -576.488C388.289 -576.488 641.084 -507.005 1061.95 75.5557V150.863C614.055 -387.02 277.4 -370.711 277.4 -370.711C277.4 -370.711 147.192 -588.927 388.289 -576.488Z" fill="white"/>
</g>
<defs>
<radialGradient id="paint0_radial" cx="0" cy="0" r="1" gradientUnits="userSpaceOnUse" gradientTransform="translate(-187.105 -738.012) rotate(37.6119) scale(2128.8 2135.84)">
<stop stop-color="#36D3D0"/>
<stop offset="1" stop-color="#1A1194"/>
</radialGradient>
<clipPath id="clip0">
<rect width="1440" height="550" fill="white"/>
</clipPath>
</defs>
</svg>
