<svg width="400" height="321" viewBox="0 0 400 321" fill="none" xmlns="http://www.w3.org/2000/svg">
<g clip-path="url(#clip0)">
<path d="M322.454 319.911H77.7273C74.0161 319.911 71 316.891 71 313.176V153.735C71 150.02 74.0161 147 77.7273 147H322.454C326.165 147 329.182 150.02 329.182 153.735V313.176C329.182 316.903 326.177 319.911 322.454 319.911Z" fill="#171717"/>
<path d="M84.5106 164.624C87.1857 164.624 89.3542 162.453 89.3542 159.775C89.3542 157.097 87.1857 154.925 84.5106 154.925C81.8355 154.925 79.667 157.097 79.667 159.775C79.667 162.453 81.8355 164.624 84.5106 164.624Z" fill="#FC5B57"/>
<path d="M98.6827 164.624C101.358 164.624 103.526 162.453 103.526 159.775C103.526 157.097 101.358 154.925 98.6827 154.925C96.0077 154.925 93.8391 157.097 93.8391 159.775C93.8391 162.453 96.0077 164.624 98.6827 164.624Z" fill="#E5BF3C"/>
<path d="M112.855 164.624C115.53 164.624 117.698 162.453 117.698 159.775C117.698 157.097 115.53 154.925 112.855 154.925C110.18 154.925 108.011 157.097 108.011 159.775C108.011 162.453 110.18 164.624 112.855 164.624Z" fill="#57C038"/>
<path d="M98.049 193.708C98.049 193.49 98.0126 193.289 97.9396 193.107C97.8719 192.925 97.7599 192.758 97.6037 192.607C97.4474 192.451 97.2443 192.307 96.9943 192.177C96.7443 192.042 96.4396 191.914 96.0803 191.794C95.5698 191.628 95.1089 191.443 94.6974 191.24C94.286 191.031 93.9344 190.792 93.6428 190.521C93.3511 190.245 93.1271 189.927 92.9709 189.568C92.8146 189.203 92.7365 188.779 92.7365 188.294C92.7365 187.857 92.8068 187.458 92.9474 187.099C93.0881 186.735 93.286 186.419 93.5412 186.154C93.8016 185.883 94.1141 185.664 94.4787 185.498C94.8485 185.331 95.2599 185.222 95.7131 185.169V183.466H96.9631V185.185C97.4162 185.248 97.8198 185.375 98.174 185.568C98.5334 185.755 98.8381 186.003 99.0881 186.31C99.3381 186.617 99.5282 186.982 99.6584 187.404C99.7938 187.826 99.8615 188.3 99.8615 188.826H97.9943C97.9943 188.498 97.9553 188.203 97.8771 187.943C97.799 187.677 97.687 187.453 97.5412 187.271C97.3954 187.083 97.2157 186.94 97.0021 186.841C96.7938 186.742 96.5542 186.693 96.2834 186.693C95.9917 186.693 95.7391 186.732 95.5256 186.81C95.3172 186.888 95.1454 186.998 95.0099 187.138C94.8745 187.274 94.773 187.44 94.7053 187.638C94.6376 187.831 94.6037 188.044 94.6037 188.279C94.6037 188.503 94.6349 188.703 94.6974 188.88C94.7652 189.057 94.8771 189.222 95.0334 189.373C95.1896 189.524 95.3954 189.667 95.6506 189.802C95.9058 189.932 96.2235 190.063 96.6037 190.193C97.1193 190.37 97.5803 190.563 97.9865 190.771C98.398 190.974 98.7469 191.214 99.0334 191.49C99.3198 191.761 99.5386 192.076 99.6896 192.435C99.8407 192.794 99.9162 193.214 99.9162 193.693C99.9162 194.151 99.8433 194.563 99.6974 194.927C99.5516 195.287 99.3433 195.599 99.0724 195.865C98.8016 196.125 98.4735 196.336 98.0881 196.498C97.7027 196.654 97.273 196.755 96.799 196.802V198.318H95.5568V196.81C95.1349 196.768 94.7287 196.672 94.3381 196.521C93.9474 196.37 93.6011 196.154 93.299 195.873C92.9969 195.586 92.7547 195.227 92.5724 194.794C92.3902 194.357 92.299 193.833 92.299 193.224H94.1662C94.1662 193.63 94.2235 193.966 94.3381 194.232C94.4579 194.498 94.6115 194.711 94.799 194.873C94.9865 195.029 95.1974 195.141 95.4318 195.208C95.6662 195.271 95.9032 195.302 96.1428 195.302C96.7573 195.302 97.2287 195.159 97.5568 194.873C97.8849 194.581 98.049 194.193 98.049 193.708ZM115.072 194.318L115.205 194.943L115.346 194.326L117.393 188.224H119.322L116.01 196.677H114.401L111.057 188.224H112.987L115.072 194.318ZM121.627 188.224H126.135V195.13H128.643V196.677H121.627V195.13H124.252V189.779H121.627V188.224ZM124.096 186.037C124.096 185.745 124.19 185.505 124.377 185.318C124.565 185.125 124.828 185.029 125.166 185.029C125.51 185.029 125.776 185.125 125.963 185.318C126.156 185.505 126.252 185.745 126.252 186.037C126.252 186.328 126.156 186.57 125.963 186.763C125.776 186.951 125.51 187.044 125.166 187.044C124.828 187.044 124.565 186.951 124.377 186.763C124.19 186.57 124.096 186.328 124.096 186.037ZM134.291 194.318L134.424 194.943L134.565 194.326L136.612 188.224H138.541L135.229 196.677H133.619L130.276 188.224H132.205L134.291 194.318ZM140.783 184.677H145.354V195.13H147.932V196.677H140.783V195.13H143.471V186.232H140.783V184.677ZM150.455 188.224H154.963V195.13H157.471V196.677H150.455V195.13H153.08V189.779H150.455V188.224ZM152.924 186.037C152.924 185.745 153.018 185.505 153.205 185.318C153.393 185.125 153.656 185.029 153.994 185.029C154.338 185.029 154.604 185.125 154.791 185.318C154.984 185.505 155.08 185.745 155.08 186.037C155.08 186.328 154.984 186.57 154.791 186.763C154.604 186.951 154.338 187.044 153.994 187.044C153.656 187.044 153.393 186.951 153.205 186.763C153.018 186.57 152.924 186.328 152.924 186.037ZM159.315 192.373C159.315 191.763 159.403 191.195 159.58 190.669C159.763 190.143 160.02 189.688 160.354 189.302C160.692 188.917 161.104 188.615 161.588 188.396C162.072 188.177 162.622 188.068 163.237 188.068C163.856 188.068 164.408 188.177 164.893 188.396C165.382 188.615 165.794 188.917 166.127 189.302C166.466 189.688 166.723 190.143 166.901 190.669C167.078 191.195 167.166 191.763 167.166 192.373V192.537C167.166 193.151 167.078 193.722 166.901 194.248C166.723 194.774 166.466 195.229 166.127 195.615C165.794 195.995 165.385 196.294 164.901 196.513C164.416 196.732 163.867 196.841 163.252 196.841C162.632 196.841 162.078 196.732 161.588 196.513C161.104 196.294 160.692 195.995 160.354 195.615C160.02 195.229 159.763 194.774 159.58 194.248C159.403 193.722 159.315 193.151 159.315 192.537V192.373ZM161.182 192.537C161.182 192.922 161.221 193.284 161.299 193.623C161.382 193.961 161.507 194.261 161.674 194.521C161.846 194.776 162.062 194.979 162.322 195.13C162.583 195.276 162.893 195.349 163.252 195.349C163.601 195.349 163.903 195.276 164.158 195.13C164.419 194.979 164.632 194.776 164.799 194.521C164.971 194.261 165.096 193.961 165.174 193.623C165.257 193.284 165.299 192.922 165.299 192.537V192.373C165.299 191.998 165.257 191.641 165.174 191.302C165.096 190.964 164.971 190.667 164.799 190.412C164.632 190.156 164.419 189.953 164.158 189.802C163.903 189.651 163.596 189.576 163.237 189.576C162.882 189.576 162.575 189.651 162.315 189.802C162.054 189.953 161.841 190.156 161.674 190.412C161.507 190.667 161.382 190.964 161.299 191.302C161.221 191.641 161.182 191.998 161.182 192.373V192.537ZM174.776 194.388C174.776 194.248 174.747 194.12 174.69 194.005C174.632 193.886 174.528 193.779 174.377 193.685C174.231 193.586 174.028 193.495 173.768 193.412C173.513 193.328 173.184 193.248 172.783 193.169C172.283 193.065 171.83 192.94 171.424 192.794C171.023 192.649 170.677 192.474 170.385 192.271C170.098 192.068 169.877 191.833 169.721 191.568C169.565 191.297 169.487 190.985 169.487 190.63C169.487 190.287 169.567 189.961 169.729 189.654C169.89 189.341 170.119 189.068 170.416 188.833C170.718 188.599 171.083 188.414 171.51 188.279C171.942 188.138 172.424 188.068 172.955 188.068C173.518 188.068 174.02 188.138 174.463 188.279C174.911 188.419 175.289 188.612 175.596 188.857C175.903 189.097 176.138 189.38 176.299 189.708C176.466 190.037 176.549 190.388 176.549 190.763H174.682C174.682 190.597 174.645 190.438 174.572 190.287C174.5 190.13 174.39 189.992 174.244 189.873C174.098 189.753 173.916 189.659 173.697 189.591C173.484 189.518 173.237 189.482 172.955 189.482C172.674 189.482 172.429 189.513 172.221 189.576C172.018 189.633 171.848 189.711 171.713 189.81C171.578 189.904 171.476 190.016 171.408 190.146C171.346 190.276 171.315 190.412 171.315 190.552C171.315 190.693 171.338 190.82 171.385 190.935C171.437 191.05 171.531 191.154 171.666 191.248C171.802 191.341 171.989 191.427 172.229 191.505C172.468 191.578 172.778 191.649 173.158 191.716C173.69 191.81 174.166 191.927 174.588 192.068C175.015 192.208 175.377 192.38 175.674 192.583C175.976 192.787 176.208 193.029 176.369 193.31C176.531 193.586 176.612 193.912 176.612 194.287C176.612 194.662 176.526 195.005 176.354 195.318C176.182 195.63 175.937 195.901 175.619 196.13C175.302 196.354 174.919 196.529 174.471 196.654C174.028 196.779 173.531 196.841 172.979 196.841C172.364 196.841 171.822 196.761 171.354 196.599C170.885 196.432 170.492 196.216 170.174 195.951C169.856 195.685 169.614 195.383 169.447 195.044C169.286 194.706 169.205 194.362 169.205 194.013H171.018C171.033 194.274 171.101 194.495 171.221 194.677C171.341 194.86 171.494 195.008 171.682 195.123C171.869 195.232 172.078 195.313 172.307 195.365C172.536 195.412 172.768 195.435 173.002 195.435C173.58 195.435 174.02 195.339 174.322 195.146C174.625 194.948 174.776 194.695 174.776 194.388ZM182.619 186.177V188.224H185.815V189.615H182.619V193.669C182.619 193.987 182.656 194.25 182.729 194.458C182.807 194.667 182.914 194.833 183.049 194.958C183.184 195.083 183.343 195.172 183.526 195.224C183.708 195.271 183.908 195.294 184.127 195.294C184.289 195.294 184.455 195.287 184.627 195.271C184.804 195.25 184.973 195.229 185.135 195.208C185.302 195.182 185.453 195.156 185.588 195.13C185.729 195.099 185.846 195.07 185.94 195.044L186.151 196.333C186.015 196.412 185.851 196.485 185.658 196.552C185.471 196.615 185.265 196.667 185.041 196.708C184.817 196.75 184.583 196.781 184.338 196.802C184.098 196.828 183.862 196.841 183.627 196.841C183.205 196.841 182.817 196.784 182.463 196.669C182.114 196.55 181.812 196.367 181.557 196.123C181.307 195.873 181.109 195.555 180.963 195.169C180.822 194.779 180.752 194.313 180.752 193.771V189.615H178.69V188.224H180.752V186.177H182.619ZM191.838 193.294L192.158 194.31L194.533 188.224H196.604L192.322 197.958C192.229 198.172 192.106 198.401 191.955 198.646C191.804 198.896 191.617 199.128 191.393 199.341C191.174 199.555 190.911 199.732 190.604 199.873C190.296 200.018 189.937 200.091 189.526 200.091C189.354 200.091 189.179 200.076 189.002 200.044C188.83 200.018 188.677 199.987 188.541 199.951L188.807 198.498C188.843 198.498 188.893 198.498 188.955 198.498C189.018 198.503 189.083 198.508 189.151 198.513C189.218 198.518 189.281 198.521 189.338 198.521C189.401 198.526 189.45 198.529 189.487 198.529C189.669 198.529 189.83 198.474 189.971 198.365C190.117 198.261 190.244 198.138 190.354 197.998C190.463 197.862 190.552 197.727 190.619 197.591C190.692 197.461 190.744 197.373 190.776 197.326L191.33 196.279L187.737 188.224H189.799L191.838 193.294ZM198.44 184.677H203.01V195.13H205.588V196.677H198.44V195.13H201.127V186.232H198.44V184.677ZM211.643 196.833C211.018 196.833 210.447 196.729 209.932 196.521C209.416 196.313 208.973 196.026 208.604 195.662C208.239 195.297 207.955 194.867 207.752 194.373C207.549 193.873 207.447 193.333 207.447 192.755V192.435C207.447 191.763 207.554 191.159 207.768 190.623C207.987 190.086 208.276 189.628 208.635 189.248C209 188.867 209.421 188.576 209.901 188.373C210.385 188.169 210.893 188.068 211.424 188.068C212.039 188.068 212.58 188.172 213.049 188.38C213.518 188.583 213.908 188.873 214.221 189.248C214.539 189.617 214.778 190.057 214.94 190.568C215.101 191.078 215.182 191.638 215.182 192.248V193.037H209.322C209.354 193.365 209.434 193.669 209.565 193.951C209.695 194.232 209.864 194.477 210.072 194.685C210.286 194.888 210.533 195.05 210.815 195.169C211.101 195.284 211.414 195.341 211.752 195.341C212.226 195.341 212.661 195.248 213.057 195.06C213.458 194.873 213.783 194.615 214.033 194.287L215.049 195.24C214.914 195.443 214.739 195.641 214.526 195.833C214.312 196.021 214.062 196.19 213.776 196.341C213.489 196.487 213.166 196.604 212.807 196.693C212.453 196.787 212.065 196.833 211.643 196.833ZM211.416 189.576C211.156 189.576 210.914 189.623 210.69 189.716C210.466 189.81 210.265 189.948 210.088 190.13C209.911 190.307 209.76 190.526 209.635 190.787C209.515 191.042 209.429 191.333 209.377 191.662H213.338V191.521C213.322 191.271 213.273 191.031 213.19 190.802C213.112 190.568 212.994 190.36 212.838 190.177C212.682 189.995 212.484 189.849 212.244 189.74C212.01 189.63 211.734 189.576 211.416 189.576ZM234.354 192.544C234.354 193.169 234.281 193.745 234.135 194.271C233.994 194.792 233.783 195.242 233.502 195.623C233.221 196.003 232.875 196.3 232.463 196.513C232.052 196.727 231.578 196.833 231.041 196.833C230.526 196.833 230.078 196.742 229.697 196.56C229.322 196.378 229 196.115 228.729 195.771L228.643 196.677H226.947V184.677H228.815V189.029C229.08 188.722 229.393 188.485 229.752 188.318C230.112 188.151 230.536 188.068 231.026 188.068C231.567 188.068 232.044 188.175 232.455 188.388C232.872 188.597 233.221 188.891 233.502 189.271C233.783 189.651 233.994 190.107 234.135 190.638C234.281 191.164 234.354 191.745 234.354 192.38V192.544ZM232.487 192.38C232.487 192.005 232.453 191.651 232.385 191.318C232.322 190.979 232.216 190.682 232.065 190.427C231.919 190.172 231.721 189.972 231.471 189.826C231.221 189.675 230.914 189.599 230.549 189.599C230.106 189.599 229.744 189.701 229.463 189.904C229.182 190.107 228.966 190.373 228.815 190.701V194.193C228.966 194.521 229.182 194.789 229.463 194.998C229.75 195.206 230.117 195.31 230.565 195.31C230.919 195.31 231.218 195.24 231.463 195.099C231.708 194.953 231.906 194.755 232.057 194.505C232.208 194.255 232.317 193.964 232.385 193.63C232.453 193.292 232.487 192.93 232.487 192.544V192.38ZM241.955 195.521C241.669 195.938 241.32 196.263 240.908 196.498C240.502 196.727 240.046 196.841 239.541 196.841C239.104 196.841 238.703 196.774 238.338 196.638C237.979 196.503 237.669 196.289 237.408 195.998C237.153 195.701 236.953 195.326 236.807 194.873C236.666 194.414 236.596 193.865 236.596 193.224V188.224H238.463V193.24C238.463 193.646 238.492 193.982 238.549 194.248C238.612 194.513 238.705 194.724 238.83 194.88C238.955 195.037 239.112 195.149 239.299 195.216C239.487 195.279 239.71 195.31 239.971 195.31C240.471 195.31 240.875 195.214 241.182 195.021C241.489 194.823 241.721 194.557 241.877 194.224V188.224H243.752V196.677H242.065L241.955 195.521ZM246.549 188.224H251.057V195.13H253.565V196.677H246.549V195.13H249.174V189.779H246.549V188.224ZM249.018 186.037C249.018 185.745 249.112 185.505 249.299 185.318C249.487 185.125 249.75 185.029 250.088 185.029C250.432 185.029 250.697 185.125 250.885 185.318C251.078 185.505 251.174 185.745 251.174 186.037C251.174 186.328 251.078 186.57 250.885 186.763C250.697 186.951 250.432 187.044 250.088 187.044C249.75 187.044 249.487 186.951 249.299 186.763C249.112 186.57 249.018 186.328 249.018 186.037ZM256.096 184.677H260.666V195.13H263.244V196.677H256.096V195.13H258.783V186.232H256.096V184.677ZM265.112 192.388C265.112 191.748 265.19 191.162 265.346 190.63C265.502 190.099 265.726 189.643 266.018 189.263C266.309 188.883 266.661 188.589 267.072 188.38C267.489 188.172 267.955 188.068 268.471 188.068C268.934 188.068 269.343 188.149 269.697 188.31C270.052 188.466 270.362 188.693 270.627 188.99V184.677H272.502V196.677H270.807L270.713 195.818C270.447 196.146 270.127 196.399 269.752 196.576C269.382 196.748 268.95 196.833 268.455 196.833C267.945 196.833 267.484 196.727 267.072 196.513C266.661 196.294 266.309 195.995 266.018 195.615C265.731 195.235 265.507 194.784 265.346 194.263C265.19 193.737 265.112 193.167 265.112 192.552V192.388ZM266.979 192.552C266.979 192.932 267.015 193.289 267.088 193.623C267.161 193.956 267.276 194.248 267.432 194.498C267.593 194.748 267.796 194.945 268.041 195.091C268.291 195.232 268.588 195.302 268.932 195.302C269.359 195.302 269.708 195.211 269.979 195.029C270.25 194.841 270.466 194.591 270.627 194.279V190.607C270.466 190.3 270.247 190.055 269.971 189.873C269.7 189.69 269.359 189.599 268.947 189.599C268.598 189.599 268.299 189.672 268.049 189.818C267.804 189.964 267.601 190.164 267.44 190.419C267.283 190.675 267.166 190.972 267.088 191.31C267.015 191.649 266.979 192.008 266.979 192.388V192.552Z" fill="white"/>
<path d="M200 2L200 107" stroke="#4F4F4F" stroke-width="4" stroke-linecap="round" stroke-linejoin="round"/>
<path d="M-200 107V67H600V105.519" stroke="#4F4F4F" stroke-width="4" stroke-linecap="round" stroke-linejoin="round"/>
</g>
<defs>
<clipPath id="clip0">
<rect width="400" height="321" fill="white"/>
</clipPath>
</defs>
</svg>
