<svg width="400" height="321" viewBox="0 0 400 321" fill="none" xmlns="http://www.w3.org/2000/svg">
<g clip-path="url(#clip0)">
<path d="M322.454 319.911H77.7273C74.0161 319.911 71 316.891 71 313.176V153.735C71 150.02 74.0161 147 77.7273 147H322.454C326.165 147 329.182 150.02 329.182 153.735V313.176C329.182 316.903 326.177 319.911 322.454 319.911Z" fill="#CCCCCC"/>
<path d="M84.5106 164.624C87.1857 164.624 89.3543 162.453 89.3543 159.775C89.3543 157.097 87.1857 154.925 84.5106 154.925C81.8356 154.925 79.667 157.097 79.667 159.775C79.667 162.453 81.8356 164.624 84.5106 164.624Z" fill="#FC5B57"/>
<path d="M98.6827 164.624C101.358 164.624 103.526 162.453 103.526 159.775C103.526 157.097 101.358 154.925 98.6827 154.925C96.0077 154.925 93.8391 157.097 93.8391 159.775C93.8391 162.453 96.0077 164.624 98.6827 164.624Z" fill="#E5BF3C"/>
<path d="M112.855 164.624C115.53 164.624 117.699 162.453 117.699 159.775C117.699 157.097 115.53 154.925 112.855 154.925C110.18 154.925 108.011 157.097 108.011 159.775C108.011 162.453 110.18 164.624 112.855 164.624Z" fill="#57C038"/>
<path d="M321.423 169.452H78.8485V312.412H321.423V169.452Z" fill="white"/>
<path d="M321.378 169.452H78.8036V181.475H321.378V169.452Z" fill="#333333"/>
<path d="M196.553 184.932V188.929H201.744" stroke="black" stroke-width="0.25" stroke-miterlimit="10"/>
<path d="M197.731 184.91V190.107H201.744" stroke="black" stroke-width="0.25" stroke-miterlimit="10"/>
<path d="M88.4684 184.932V188.929H83.2772" stroke="black" stroke-width="0.25" stroke-miterlimit="10"/>
<path d="M87.2912 184.91V190.107H83.2772" stroke="black" stroke-width="0.25" stroke-miterlimit="10"/>
<path d="M137.163 187.436H147.859" stroke="black" stroke-width="0.25" stroke-miterlimit="10"/>
<path d="M142.511 184.932V188.479" stroke="black" stroke-width="0.25" stroke-miterlimit="10"/>
<path d="M196.553 308.663V304.667H201.744" stroke="black" stroke-width="0.25" stroke-miterlimit="10"/>
<path d="M197.731 308.685V303.488H201.744" stroke="black" stroke-width="0.25" stroke-miterlimit="10"/>
<path d="M88.4684 308.663V304.667H83.2772" stroke="black" stroke-width="0.25" stroke-miterlimit="10"/>
<path d="M87.2912 308.685V303.488H83.2772" stroke="black" stroke-width="0.25" stroke-miterlimit="10"/>
<path d="M137.163 306.16H147.859" stroke="black" stroke-width="0.25" stroke-miterlimit="10"/>
<path d="M142.511 308.663V305.116" stroke="black" stroke-width="0.25" stroke-miterlimit="10"/>
<g clip-path="url(#clip1)">
<path d="M191.339 189.658H94.9394V228.648H191.339V189.658Z" fill="#166CAF"/>
<path d="M143.139 255.278C153.843 255.278 162.519 246.601 162.519 235.898C162.519 225.195 153.843 216.518 143.139 216.518C132.436 216.518 123.759 225.195 123.759 235.898C123.759 246.601 132.436 255.278 143.139 255.278Z" fill="#307A35"/>
<path d="M142.309 250.488C151.577 250.488 159.089 242.976 159.089 233.708C159.089 224.441 151.577 216.928 142.309 216.928C133.042 216.928 125.529 224.441 125.529 233.708C125.529 242.976 133.042 250.488 142.309 250.488Z" fill="#388635"/>
<path d="M138.499 242.218C144.348 242.218 149.089 237.477 149.089 231.628C149.089 225.779 144.348 221.038 138.499 221.038C132.651 221.038 127.909 225.779 127.909 231.628C127.909 237.477 132.651 242.218 138.499 242.218Z" fill="#5F9540"/>
<path d="M191.339 203.898C191.339 205.058 191.339 211.758 191.339 212.928C181.369 212.928 171.409 212.928 161.439 212.928C158.199 213.058 155.329 213.468 151.559 215.598C148.539 217.308 145.909 219.408 143.349 221.718C143.319 221.718 143.129 221.718 143.129 221.718C143.129 221.718 143.129 215.868 143.129 215.018C145.059 213.278 147.919 210.558 150.229 208.698C153.169 206.338 156.869 203.908 161.269 203.908C171.299 203.908 181.319 203.898 191.339 203.898Z" fill="white"/>
<path d="M191.339 207.378C191.339 208.538 191.339 211.758 191.339 212.928C181.369 212.928 171.409 212.928 161.439 212.928C158.199 213.058 155.329 213.468 151.559 215.598C148.539 217.308 145.909 219.408 143.349 221.718C143.349 220.558 143.349 217.338 143.349 216.178C145.309 214.458 147.719 212.388 150.229 210.818C153.459 208.798 157.079 207.388 161.269 207.388C171.299 207.378 181.319 207.378 191.339 207.378Z" fill="#8D3B1D"/>
<path d="M191.339 209.438C191.339 210.598 191.339 211.768 191.339 212.928C181.369 212.928 171.409 212.928 161.439 212.928C158.199 213.058 155.329 213.468 151.559 215.598C148.539 217.308 145.909 219.408 143.349 221.718C143.349 220.558 143.349 219.398 143.349 218.228C145.309 216.508 147.719 214.438 150.229 212.868C153.459 210.848 157.079 209.438 161.269 209.438C171.299 209.438 181.319 209.438 191.339 209.438Z" fill="#742817"/>
<path d="M94.9394 203.898C94.9394 205.058 94.9394 211.758 94.9394 212.928C104.909 212.928 114.869 212.928 124.839 212.928C128.079 213.058 130.949 213.468 134.719 215.598C137.739 217.308 140.369 219.408 142.929 221.718C142.959 221.718 143.149 221.718 143.149 221.718C143.149 221.718 143.149 215.868 143.149 215.018C141.219 213.278 138.359 210.558 136.049 208.698C133.109 206.338 129.409 203.908 125.009 203.908C114.979 203.908 104.959 203.898 94.9394 203.898Z" fill="white"/>
<path d="M94.9394 207.378C94.9394 208.538 94.9394 211.758 94.9394 212.928C104.909 212.928 114.869 212.928 124.839 212.928C128.079 213.058 130.949 213.468 134.719 215.598C137.739 217.308 140.369 219.408 142.929 221.718C142.929 220.558 142.929 217.338 142.929 216.178C140.969 214.458 138.559 212.388 136.049 210.818C132.819 208.798 129.199 207.388 125.009 207.388C114.979 207.378 104.959 207.378 94.9394 207.378Z" fill="#D76638"/>
<path d="M94.9394 209.438C94.9394 210.598 94.9394 211.768 94.9394 212.928C104.909 212.928 114.869 212.928 124.839 212.928C128.079 213.058 130.949 213.468 134.719 215.598C137.739 217.308 140.369 219.408 142.929 221.718C142.929 220.558 142.929 219.398 142.929 218.228C140.969 216.508 138.559 214.438 136.049 212.868C132.819 210.848 129.199 209.438 125.009 209.438C114.979 209.438 104.959 209.438 94.9394 209.438Z" fill="#D35327"/>
<path d="M143.349 216.178H142.919V221.718H143.349V216.178Z" fill="#BB5931"/>
<path d="M130.049 201.804C129.985 201.795 129.928 201.786 129.878 201.777C129.832 201.772 129.793 201.77 129.761 201.77C129.692 201.77 129.633 201.775 129.583 201.784C129.537 201.793 129.498 201.8 129.466 201.804C129.292 201.319 129.095 200.791 128.876 200.219C128.656 199.643 128.453 199.121 128.265 198.655C128.132 198.325 127.92 197.806 127.627 197.097C127.714 197.097 127.828 197.104 127.97 197.117C128.116 197.127 128.203 197.131 128.231 197.131C128.318 197.131 128.432 197.127 128.574 197.117C128.72 197.104 128.807 197.097 128.835 197.097C128.976 197.573 129.169 198.138 129.411 198.792C129.621 199.359 129.834 199.926 130.049 200.494C130.255 200 130.408 199.624 130.509 199.368C130.66 198.993 130.804 198.616 130.941 198.236C131.06 197.907 131.191 197.527 131.332 197.097L131.648 197.117L131.964 197.097C131.74 197.614 131.515 198.138 131.291 198.668C131.067 199.194 130.854 199.709 130.653 200.212C130.438 200.752 130.237 201.283 130.049 201.804ZM132.561 201.804V198.476C132.638 198.485 132.725 198.494 132.821 198.504C132.922 198.508 132.993 198.51 133.034 198.51C133.135 198.51 133.226 198.506 133.309 198.497C133.391 198.488 133.457 198.481 133.508 198.476V201.804C133.43 201.795 133.373 201.791 133.336 201.791C133.176 201.777 133.075 201.77 133.034 201.77C132.934 201.77 132.842 201.775 132.76 201.784C132.677 201.793 132.611 201.8 132.561 201.804ZM132.492 197.22C132.492 197.079 132.545 196.953 132.65 196.843C132.755 196.733 132.881 196.678 133.027 196.678C133.174 196.678 133.302 196.731 133.412 196.836C133.521 196.941 133.576 197.069 133.576 197.22C133.576 197.367 133.521 197.495 133.412 197.605C133.306 197.71 133.178 197.762 133.027 197.762C132.876 197.762 132.748 197.71 132.643 197.605C132.542 197.495 132.492 197.367 132.492 197.22ZM135.157 198.476L135.925 200.857C136.072 200.464 136.216 200.07 136.358 199.677C136.518 199.229 136.653 198.828 136.763 198.476L137.037 198.497L137.305 198.476C137.309 198.504 137.302 198.536 137.284 198.572C137.27 198.604 137.261 198.627 137.257 198.641C137.197 198.764 137.124 198.929 137.037 199.135C136.991 199.24 136.948 199.343 136.907 199.444C136.751 199.828 136.596 200.212 136.44 200.597C136.271 201.027 136.127 201.429 136.008 201.804C135.93 201.795 135.861 201.786 135.802 201.777C135.747 201.772 135.699 201.77 135.658 201.77C135.585 201.77 135.516 201.775 135.452 201.784C135.392 201.793 135.344 201.8 135.308 201.804C135.225 201.562 135.097 201.194 134.923 200.7C134.727 200.132 134.596 199.764 134.532 199.595C134.436 199.339 134.292 198.966 134.1 198.476C134.178 198.476 134.278 198.483 134.402 198.497C134.53 198.506 134.606 198.51 134.628 198.51C134.706 198.51 134.77 198.508 134.821 198.504C135.022 198.485 135.134 198.476 135.157 198.476ZM138.849 196.589V201.804C138.771 201.795 138.714 201.791 138.677 201.791C138.517 201.777 138.416 201.77 138.375 201.77C138.275 201.77 138.183 201.775 138.101 201.784C138.018 201.793 137.952 201.8 137.902 201.804V196.589C137.979 196.598 138.066 196.607 138.162 196.617C138.263 196.621 138.334 196.623 138.375 196.623C138.476 196.623 138.567 196.619 138.65 196.61C138.732 196.6 138.798 196.594 138.849 196.589ZM139.812 201.804V198.476C139.889 198.485 139.976 198.494 140.072 198.504C140.173 198.508 140.244 198.51 140.285 198.51C140.386 198.51 140.477 198.506 140.56 198.497C140.642 198.488 140.708 198.481 140.759 198.476V201.804C140.681 201.795 140.624 201.791 140.587 201.791C140.427 201.777 140.326 201.77 140.285 201.77C140.184 201.77 140.093 201.775 140.011 201.784C139.928 201.793 139.862 201.8 139.812 201.804ZM139.743 197.22C139.743 197.079 139.796 196.953 139.901 196.843C140.006 196.733 140.132 196.678 140.278 196.678C140.425 196.678 140.553 196.731 140.662 196.836C140.772 196.941 140.827 197.069 140.827 197.22C140.827 197.367 140.772 197.495 140.662 197.605C140.557 197.71 140.429 197.762 140.278 197.762C140.127 197.762 139.999 197.71 139.894 197.605C139.793 197.495 139.743 197.367 139.743 197.22ZM143.135 201.866C142.627 201.866 142.222 201.717 141.92 201.42C141.619 201.123 141.468 200.72 141.468 200.212C141.468 199.663 141.614 199.226 141.907 198.902C142.204 198.577 142.616 198.414 143.142 198.414C143.663 198.414 144.075 198.561 144.377 198.854C144.679 199.146 144.83 199.549 144.83 200.061C144.83 200.597 144.684 201.027 144.391 201.351C144.08 201.695 143.661 201.866 143.135 201.866ZM143.183 198.723C142.927 198.723 142.742 198.865 142.627 199.149C142.531 199.391 142.483 199.739 142.483 200.192C142.483 200.549 142.515 200.83 142.579 201.036C142.684 201.383 142.87 201.557 143.135 201.557C143.378 201.557 143.556 201.386 143.67 201.043C143.766 200.759 143.814 200.395 143.814 199.952C143.814 199.581 143.769 199.293 143.677 199.087C143.567 198.844 143.403 198.723 143.183 198.723ZM145.37 200.933H145.541C145.605 201.111 145.706 201.253 145.843 201.358C145.981 201.464 146.141 201.516 146.324 201.516C146.452 201.516 146.571 201.477 146.681 201.399C146.795 201.317 146.852 201.216 146.852 201.098C146.852 200.928 146.717 200.784 146.447 200.665C145.994 200.464 145.74 200.345 145.685 200.308C145.406 200.112 145.267 199.844 145.267 199.505C145.267 199.167 145.381 198.902 145.61 198.709C145.839 198.513 146.118 198.414 146.447 198.414C146.621 198.414 146.797 198.444 146.976 198.504C147.154 198.559 147.31 198.636 147.442 198.737L147.278 199.341H147.085C147.058 199.185 146.98 199.05 146.852 198.936C146.729 198.822 146.589 198.764 146.433 198.764C146.296 198.764 146.177 198.799 146.077 198.867C145.976 198.931 145.926 199.03 145.926 199.162C145.926 199.332 146.065 199.473 146.344 199.588C146.788 199.766 147.047 199.881 147.12 199.931C147.399 200.123 147.538 200.402 147.538 200.768C147.538 201.093 147.419 201.358 147.181 201.564C146.948 201.765 146.626 201.866 146.214 201.866C145.857 201.866 145.541 201.772 145.267 201.585L145.37 200.933ZM149.245 198.915V200.871C149.245 201.095 149.263 201.255 149.3 201.351C149.341 201.443 149.435 201.489 149.581 201.489C149.668 201.489 149.769 201.473 149.883 201.441V201.708C149.604 201.813 149.366 201.866 149.169 201.866C148.84 201.866 148.607 201.761 148.469 201.55C148.355 201.377 148.298 201.111 148.298 200.754V198.915H147.831C147.84 198.874 147.845 198.833 147.845 198.792C147.845 198.751 147.845 198.719 147.845 198.696V198.62C147.845 198.597 147.845 198.575 147.845 198.552C147.836 198.52 147.831 198.494 147.831 198.476H148.298V197.701C148.412 197.655 148.561 197.591 148.744 197.509C148.927 197.426 149.094 197.348 149.245 197.275V198.476H149.828C149.823 198.517 149.819 198.561 149.814 198.607C149.814 198.648 149.814 198.677 149.814 198.696C149.814 198.732 149.814 198.767 149.814 198.799C149.823 198.854 149.828 198.892 149.828 198.915H149.245ZM150.652 203.547L151.523 201.777L150.137 198.476C150.21 198.476 150.308 198.483 150.432 198.497C150.56 198.506 150.636 198.51 150.658 198.51C150.732 198.51 150.83 198.506 150.953 198.497C151.082 198.483 151.157 198.476 151.18 198.476C151.313 198.847 151.445 199.206 151.578 199.554C151.683 199.823 151.825 200.176 152.003 200.61L152.264 199.91C152.351 199.677 152.44 199.441 152.532 199.204C152.623 198.966 152.708 198.723 152.786 198.476L153.067 198.497L153.348 198.476L152.655 200.048C152.546 200.295 152.383 200.674 152.168 201.187C151.953 201.695 151.791 202.086 151.681 202.36C151.539 202.712 151.388 203.108 151.228 203.547L150.94 203.527L150.652 203.547ZM154.865 196.589V201.804C154.787 201.795 154.73 201.791 154.693 201.791C154.533 201.777 154.433 201.77 154.391 201.77C154.291 201.77 154.199 201.775 154.117 201.784C154.035 201.793 153.968 201.8 153.918 201.804V196.589C153.996 196.598 154.083 196.607 154.179 196.617C154.279 196.621 154.35 196.623 154.391 196.623C154.492 196.623 154.584 196.619 154.666 196.61C154.748 196.6 154.815 196.594 154.865 196.589ZM156.603 199.814H157.619C157.619 199.531 157.596 199.304 157.55 199.135C157.477 198.86 157.349 198.723 157.166 198.723C156.946 198.723 156.791 198.858 156.699 199.128C156.635 199.316 156.603 199.544 156.603 199.814ZM158.566 200.144H156.603C156.603 200.542 156.67 200.844 156.802 201.049C156.958 201.297 157.209 201.42 157.557 201.42C157.699 201.42 157.838 201.393 157.976 201.338C158.113 201.283 158.241 201.207 158.36 201.111L158.442 201.173L158.291 201.557C157.999 201.763 157.671 201.866 157.31 201.866C156.747 201.866 156.32 201.708 156.027 201.393C155.734 201.077 155.588 200.633 155.588 200.061C155.588 199.572 155.727 199.176 156.006 198.874C156.29 198.568 156.674 198.414 157.159 198.414C157.667 198.414 158.035 198.579 158.264 198.908C158.465 199.197 158.566 199.608 158.566 200.144Z" fill="white"/>
</g>
<path d="M103.325 246.248H181.697" stroke="#CCCCCC" stroke-width="2" stroke-miterlimit="10"/>
<path d="M117.183 254.566H167.839" stroke="#CCCCCC" stroke-width="2" stroke-miterlimit="10"/>
<path d="M101.172 295.057H119.806" stroke="#CCCCCC" stroke-width="2" stroke-miterlimit="10"/>
<path d="M96.1711 289.669H124.796" stroke="#CCCCCC" stroke-width="2" stroke-miterlimit="10"/>
<path d="M128.126 289.669H156.75" stroke="#CCCCCC" stroke-width="2" stroke-miterlimit="10"/>
<path d="M160.506 289.669H189.12" stroke="#CCCCCC" stroke-width="2" stroke-miterlimit="10"/>
<path d="M133.126 295.057H151.761" stroke="#CCCCCC" stroke-width="2" stroke-miterlimit="10"/>
<path d="M165.496 295.057H184.13" stroke="#CCCCCC" stroke-width="2" stroke-miterlimit="10"/>
<path d="M122.576 265.365H98.5369V284.909H122.576V265.365Z" fill="#CCCCCC"/>
<path d="M154.53 265.365H130.491V284.909H154.53V265.365Z" fill="#CCCCCC"/>
<path d="M186.9 265.365H162.861V284.909H186.9V265.365Z" fill="#CCCCCC"/>
<path d="M315.705 186.683H216.107V308.696H315.705V186.683Z" fill="#EEEEEE"/>
<path d="M309.078 252.522H222.745V301.209H309.078V252.522Z" fill="white"/>
<path d="M228.183 207.911C229.328 207.911 230.257 206.982 230.257 205.835C230.257 204.688 229.328 203.758 228.183 203.758C227.037 203.758 226.108 204.688 226.108 205.835C226.108 206.982 227.037 207.911 228.183 207.911Z" fill="#408BF9"/>
<path d="M234.069 205.834H269.477" stroke="#CCCCCC" stroke-width="2" stroke-miterlimit="10"/>
<path d="M226.108 197.168H248.712" stroke="#CCCCCC" stroke-width="2" stroke-miterlimit="10"/>
<path d="M228.183 214.793C229.328 214.793 230.257 213.863 230.257 212.716C230.257 211.569 229.328 210.639 228.183 210.639C227.037 210.639 226.108 211.569 226.108 212.716C226.108 213.863 227.037 214.793 228.183 214.793Z" fill="white"/>
<path d="M234.069 212.716H281.754" stroke="#CCCCCC" stroke-width="2" stroke-miterlimit="10"/>
<path d="M234.069 241.779H285.028" stroke="#CCCCCC" stroke-width="2" stroke-miterlimit="10"/>
<path d="M226.108 233.113H259.543" stroke="#CCCCCC" stroke-width="2" stroke-miterlimit="10"/>
<path d="M228.183 221.674C229.328 221.674 230.257 220.744 230.257 219.597C230.257 218.45 229.328 217.521 228.183 217.521C227.037 217.521 226.108 218.45 226.108 219.597C226.108 220.744 227.037 221.674 228.183 221.674Z" fill="white"/>
<path d="M234.069 219.597H296.453" stroke="#CCCCCC" stroke-width="2" stroke-miterlimit="10"/>
<path d="M230.257 239.714H226.12V243.856H230.257V239.714Z" fill="white"/>
<path d="M235.296 263.411C235.291 263.554 235.275 263.697 235.247 263.84C235.22 263.984 235.178 264.112 235.121 264.226C235.065 264.34 234.994 264.433 234.906 264.504C234.819 264.576 234.715 264.612 234.593 264.612C234.504 264.612 234.426 264.59 234.359 264.546C234.292 264.5 234.242 264.436 234.207 264.353C234.15 264.433 234.084 264.495 234.007 264.541C233.932 264.587 233.851 264.609 233.763 264.609C233.677 264.609 233.6 264.589 233.534 264.548C233.469 264.506 233.415 264.446 233.372 264.368C233.332 264.29 233.303 264.196 233.287 264.087C233.271 263.976 233.268 263.853 233.28 263.716C233.296 263.54 233.328 263.382 233.375 263.242C233.422 263.102 233.482 262.983 233.556 262.886C233.629 262.788 233.714 262.713 233.812 262.661C233.91 262.607 234.017 262.581 234.134 262.581C234.253 262.581 234.351 262.601 234.427 262.642C234.504 262.682 234.565 262.729 234.61 262.783L234.505 264.041C234.5 264.097 234.501 264.143 234.508 264.177C234.516 264.21 234.526 264.235 234.539 264.253C234.554 264.269 234.57 264.28 234.588 264.285C234.608 264.288 234.627 264.29 234.644 264.29C234.693 264.29 234.737 264.268 234.776 264.224C234.817 264.18 234.851 264.119 234.879 264.043C234.908 263.965 234.93 263.873 234.945 263.767C234.961 263.66 234.969 263.543 234.969 263.418C234.976 263.216 234.959 263.039 234.92 262.886C234.883 262.733 234.824 262.605 234.745 262.502C234.665 262.398 234.566 262.32 234.449 262.268C234.334 262.216 234.202 262.19 234.054 262.19C233.889 262.19 233.74 262.228 233.607 262.305C233.475 262.38 233.362 262.485 233.268 262.62C233.173 262.755 233.099 262.915 233.045 263.101C232.992 263.285 232.962 263.486 232.955 263.706C232.937 264.149 233.014 264.483 233.185 264.709C233.355 264.936 233.606 265.049 233.936 265.049C234.037 265.049 234.138 265.036 234.239 265.01C234.342 264.982 234.43 264.946 234.503 264.902L234.581 265.217C234.539 265.248 234.491 265.275 234.437 265.298C234.385 265.321 234.33 265.34 234.273 265.356C234.216 265.371 234.158 265.382 234.098 265.388C234.039 265.396 233.983 265.4 233.929 265.4C233.695 265.4 233.491 265.361 233.319 265.281C233.148 265.199 233.007 265.085 232.896 264.939C232.787 264.791 232.707 264.613 232.655 264.404C232.604 264.196 232.583 263.963 232.591 263.706C232.599 263.451 232.641 263.21 232.716 262.983C232.791 262.757 232.892 262.559 233.021 262.39C233.151 262.221 233.305 262.087 233.482 261.99C233.66 261.89 233.855 261.841 234.068 261.841C234.26 261.841 234.434 261.878 234.588 261.953C234.745 262.026 234.876 262.131 234.981 262.268C235.089 262.405 235.169 262.57 235.223 262.764C235.278 262.957 235.303 263.173 235.296 263.411ZM233.651 263.716C233.643 263.895 233.657 264.028 233.695 264.116C233.734 264.202 233.79 264.246 233.863 264.246C233.917 264.246 233.97 264.233 234.022 264.207C234.074 264.181 234.122 264.129 234.166 264.053V264.041L234.261 262.939C234.229 262.93 234.195 262.925 234.161 262.925C234.008 262.925 233.891 262.993 233.81 263.13C233.73 263.267 233.677 263.462 233.651 263.716ZM238.148 264.087C238.148 264.279 238.125 264.457 238.08 264.622C238.034 264.786 237.967 264.928 237.879 265.049C237.791 265.168 237.683 265.261 237.555 265.33C237.428 265.396 237.281 265.43 237.115 265.43C236.965 265.43 236.833 265.405 236.717 265.356C236.603 265.308 236.505 265.238 236.422 265.146V266.396H235.838V262.739H236.375L236.4 263.005C236.484 262.904 236.585 262.827 236.7 262.773C236.817 262.718 236.953 262.69 237.108 262.69C237.275 262.69 237.424 262.723 237.552 262.788C237.682 262.853 237.791 262.945 237.879 263.064C237.967 263.181 238.034 263.323 238.08 263.489C238.125 263.653 238.148 263.835 238.148 264.036V264.087ZM237.564 264.036C237.564 263.917 237.552 263.805 237.528 263.701C237.503 263.595 237.466 263.503 237.415 263.425C237.365 263.346 237.301 263.283 237.223 263.237C237.144 263.192 237.052 263.169 236.944 263.169C236.814 263.169 236.707 263.197 236.622 263.252C236.537 263.307 236.471 263.381 236.422 263.474V264.656C236.471 264.747 236.537 264.821 236.62 264.878C236.704 264.935 236.814 264.963 236.949 264.963C237.057 264.963 237.149 264.94 237.227 264.893C237.306 264.845 237.369 264.782 237.418 264.702C237.468 264.622 237.505 264.53 237.528 264.424C237.552 264.318 237.564 264.206 237.564 264.087V264.036ZM240.523 265.381C240.507 265.348 240.493 265.31 240.482 265.266C240.472 265.222 240.463 265.175 240.455 265.125C240.414 265.167 240.368 265.207 240.316 265.244C240.265 265.28 240.208 265.312 240.145 265.339C240.083 265.367 240.016 265.389 239.942 265.405C239.871 265.422 239.793 265.43 239.71 265.43C239.57 265.43 239.443 265.41 239.33 265.371C239.217 265.33 239.12 265.275 239.039 265.205C238.959 265.133 238.897 265.05 238.853 264.954C238.81 264.858 238.788 264.753 238.788 264.641C238.788 264.358 238.893 264.141 239.102 263.992C239.314 263.842 239.617 263.767 240.011 263.767H240.438V263.594C240.438 263.454 240.391 263.343 240.296 263.262C240.202 263.179 240.068 263.137 239.896 263.137C239.818 263.137 239.749 263.147 239.691 263.167C239.632 263.184 239.583 263.21 239.544 263.242C239.505 263.275 239.476 263.313 239.456 263.357C239.437 263.401 239.427 263.448 239.427 263.499H238.844C238.844 263.396 238.867 263.297 238.914 263.201C238.963 263.103 239.034 263.017 239.127 262.942C239.22 262.865 239.333 262.804 239.466 262.759C239.601 262.713 239.755 262.69 239.928 262.69C240.084 262.69 240.229 262.71 240.362 262.749C240.496 262.786 240.611 262.843 240.709 262.92C240.807 262.995 240.883 263.089 240.938 263.203C240.994 263.315 241.021 263.447 241.021 263.599V264.775C241.021 264.891 241.03 264.997 241.046 265.093C241.064 265.187 241.089 265.269 241.122 265.339V265.381H240.523ZM239.82 264.958C239.895 264.958 239.965 264.95 240.03 264.932C240.097 264.912 240.156 264.888 240.208 264.858C240.262 264.827 240.308 264.792 240.345 264.753C240.384 264.714 240.415 264.674 240.438 264.634V264.138H240.067C239.829 264.138 239.653 264.176 239.539 264.253C239.427 264.329 239.371 264.438 239.371 264.58C239.371 264.634 239.38 264.684 239.398 264.731C239.416 264.777 239.443 264.817 239.478 264.851C239.516 264.884 239.562 264.91 239.618 264.929C239.675 264.949 239.742 264.958 239.82 264.958ZM241.766 264.041C241.766 263.84 241.79 263.657 241.839 263.491C241.89 263.325 241.961 263.183 242.054 263.064C242.147 262.945 242.258 262.853 242.389 262.788C242.52 262.723 242.668 262.69 242.831 262.69C242.988 262.69 243.125 262.717 243.241 262.771C243.356 262.825 243.456 262.902 243.539 263.003L243.563 262.739H244.093V265.31C244.093 265.487 244.063 265.645 244.005 265.781C243.946 265.92 243.864 266.036 243.758 266.13C243.654 266.225 243.529 266.296 243.382 266.345C243.236 266.396 243.075 266.421 242.899 266.421C242.827 266.421 242.746 266.413 242.655 266.396C242.565 266.382 242.475 266.357 242.384 266.321C242.293 266.287 242.206 266.241 242.122 266.184C242.039 266.129 241.969 266.061 241.91 265.981L242.188 265.632C242.288 265.75 242.394 265.833 242.508 265.884C242.624 265.934 242.743 265.959 242.865 265.959C242.962 265.959 243.051 265.946 243.131 265.918C243.211 265.89 243.278 265.85 243.333 265.796C243.389 265.742 243.431 265.675 243.46 265.596C243.491 265.518 243.507 265.427 243.507 265.325V265.146C243.424 265.238 243.326 265.308 243.214 265.356C243.103 265.405 242.974 265.43 242.826 265.43C242.664 265.43 242.519 265.396 242.389 265.33C242.258 265.261 242.147 265.168 242.054 265.049C241.961 264.93 241.89 264.789 241.839 264.626C241.79 264.462 241.766 264.284 241.766 264.092V264.041ZM242.352 264.092C242.352 264.211 242.364 264.322 242.389 264.426C242.413 264.53 242.45 264.622 242.501 264.7C242.551 264.778 242.616 264.84 242.694 264.885C242.774 264.929 242.867 264.951 242.975 264.951C243.11 264.951 243.22 264.924 243.304 264.868C243.389 264.811 243.456 264.736 243.507 264.641V263.474C243.455 263.381 243.386 263.307 243.302 263.252C243.217 263.197 243.11 263.169 242.979 263.169C242.872 263.169 242.778 263.192 242.699 263.237C242.621 263.283 242.555 263.346 242.503 263.425C242.453 263.505 242.415 263.598 242.389 263.704C242.364 263.809 242.352 263.922 242.352 264.041V264.092ZM246.075 265.43C245.88 265.43 245.702 265.397 245.54 265.332C245.379 265.267 245.241 265.177 245.125 265.063C245.011 264.95 244.923 264.815 244.859 264.661C244.796 264.504 244.764 264.336 244.764 264.155V264.055C244.764 263.845 244.797 263.656 244.864 263.489C244.933 263.321 245.023 263.178 245.135 263.059C245.249 262.94 245.381 262.849 245.531 262.786C245.682 262.722 245.841 262.69 246.007 262.69C246.199 262.69 246.368 262.723 246.515 262.788C246.661 262.852 246.783 262.942 246.881 263.059C246.98 263.175 247.055 263.312 247.105 263.472C247.156 263.631 247.181 263.806 247.181 263.997V264.243H245.35C245.36 264.346 245.385 264.441 245.426 264.529C245.466 264.617 245.519 264.693 245.584 264.758C245.651 264.822 245.728 264.872 245.816 264.91C245.906 264.945 246.004 264.963 246.109 264.963C246.257 264.963 246.393 264.934 246.517 264.875C246.642 264.817 246.744 264.736 246.822 264.634L247.14 264.932C247.097 264.995 247.043 265.057 246.976 265.117C246.909 265.176 246.831 265.229 246.742 265.276C246.652 265.321 246.551 265.358 246.439 265.386C246.328 265.415 246.207 265.43 246.075 265.43ZM246.004 263.162C245.923 263.162 245.847 263.176 245.777 263.206C245.707 263.235 245.645 263.278 245.589 263.335C245.534 263.39 245.487 263.459 245.448 263.54C245.41 263.62 245.383 263.711 245.367 263.813H246.605V263.77C246.6 263.691 246.585 263.617 246.559 263.545C246.534 263.472 246.497 263.407 246.449 263.35C246.4 263.293 246.338 263.247 246.263 263.213C246.19 263.179 246.104 263.162 246.004 263.162ZM252.816 266.26C252.708 266.26 252.611 266.243 252.523 266.211C252.435 266.178 252.356 266.134 252.286 266.079C252.218 266.024 252.158 265.959 252.108 265.884C252.059 265.809 252.018 265.729 251.983 265.645C251.951 265.56 251.926 265.473 251.91 265.383C251.895 265.295 251.888 265.208 251.888 265.122V264.724C251.888 264.498 251.834 264.335 251.727 264.236C251.621 264.137 251.459 264.087 251.241 264.087V263.657C251.459 263.657 251.621 263.608 251.727 263.508C251.834 263.407 251.888 263.243 251.888 263.015V262.617C251.888 262.533 251.895 262.445 251.908 262.356C251.922 262.266 251.945 262.179 251.976 262.095C252.007 262.01 252.046 261.931 252.093 261.858C252.142 261.783 252.201 261.718 252.269 261.663C252.339 261.607 252.419 261.563 252.508 261.531C252.599 261.498 252.702 261.482 252.816 261.482L252.882 261.821C252.774 261.82 252.691 261.843 252.63 261.892C252.57 261.939 252.526 262.001 252.498 262.078C252.471 262.154 252.454 262.24 252.447 262.336C252.442 262.431 252.44 262.524 252.44 262.617V263.015C252.44 263.209 252.393 263.381 252.301 263.53C252.208 263.68 252.064 263.794 251.869 263.872C252.066 263.95 252.21 264.063 252.301 264.211C252.393 264.36 252.44 264.53 252.44 264.724V265.122C252.44 265.215 252.446 265.308 252.457 265.403C252.47 265.499 252.493 265.585 252.525 265.662C252.56 265.738 252.605 265.8 252.662 265.847C252.719 265.896 252.792 265.92 252.882 265.918L252.816 266.26ZM258.578 264.666C258.578 264.622 258.569 264.582 258.551 264.546C258.533 264.508 258.5 264.475 258.453 264.446C258.407 264.415 258.344 264.386 258.263 264.36C258.183 264.334 258.08 264.309 257.955 264.285C257.799 264.252 257.657 264.213 257.53 264.167C257.405 264.122 257.297 264.067 257.206 264.004C257.116 263.94 257.047 263.867 256.998 263.784C256.949 263.7 256.925 263.602 256.925 263.491C256.925 263.384 256.95 263.282 257 263.186C257.051 263.088 257.122 263.003 257.215 262.93C257.31 262.856 257.424 262.799 257.557 262.756C257.692 262.712 257.843 262.69 258.009 262.69C258.185 262.69 258.342 262.712 258.48 262.756C258.62 262.8 258.738 262.861 258.834 262.937C258.93 263.012 259.003 263.101 259.054 263.203C259.106 263.306 259.132 263.416 259.132 263.533H258.548C258.548 263.481 258.537 263.431 258.514 263.384C258.491 263.335 258.457 263.292 258.412 263.254C258.366 263.217 258.309 263.188 258.241 263.167C258.174 263.144 258.097 263.132 258.009 263.132C257.921 263.132 257.844 263.142 257.779 263.162C257.716 263.18 257.663 263.204 257.621 263.235C257.578 263.264 257.546 263.299 257.525 263.34C257.506 263.381 257.496 263.423 257.496 263.467C257.496 263.511 257.503 263.551 257.518 263.586C257.534 263.622 257.564 263.655 257.606 263.684C257.648 263.713 257.707 263.74 257.782 263.765C257.857 263.787 257.953 263.809 258.072 263.831C258.238 263.86 258.387 263.896 258.519 263.94C258.652 263.984 258.766 264.038 258.858 264.102C258.953 264.165 259.025 264.241 259.076 264.329C259.126 264.415 259.151 264.517 259.151 264.634C259.151 264.751 259.124 264.858 259.071 264.956C259.017 265.054 258.941 265.138 258.841 265.21C258.742 265.28 258.622 265.334 258.482 265.374C258.344 265.413 258.189 265.432 258.016 265.432C257.824 265.432 257.655 265.407 257.508 265.356C257.362 265.304 257.239 265.237 257.14 265.154C257.04 265.071 256.965 264.976 256.913 264.871C256.862 264.765 256.837 264.657 256.837 264.548H257.403C257.408 264.63 257.429 264.699 257.467 264.756C257.504 264.813 257.552 264.859 257.611 264.895C257.669 264.929 257.734 264.954 257.806 264.971C257.878 264.985 257.95 264.993 258.023 264.993C258.204 264.993 258.342 264.963 258.436 264.902C258.53 264.84 258.578 264.762 258.578 264.666ZM259.986 262.739H261.395V264.897H262.179V265.381H259.986V264.897H260.807V263.225H259.986V262.739ZM260.758 262.056C260.758 261.965 260.787 261.89 260.846 261.831C260.904 261.771 260.986 261.741 261.092 261.741C261.2 261.741 261.283 261.771 261.341 261.831C261.401 261.89 261.432 261.965 261.432 262.056C261.432 262.147 261.401 262.222 261.341 262.283C261.283 262.341 261.2 262.371 261.092 262.371C260.986 262.371 260.904 262.341 260.846 262.283C260.787 262.222 260.758 262.147 260.758 262.056ZM263.595 264.915H265.191V265.381H262.826V264.995L264.334 263.213H262.85V262.739H265.121V263.113L263.595 264.915ZM267.096 265.43C266.9 265.43 266.722 265.397 266.561 265.332C266.4 265.267 266.261 265.177 266.146 265.063C266.032 264.95 265.943 264.815 265.88 264.661C265.816 264.504 265.785 264.336 265.785 264.155V264.055C265.785 263.845 265.818 263.656 265.885 263.489C265.953 263.321 266.043 263.178 266.156 263.059C266.27 262.94 266.401 262.849 266.551 262.786C266.703 262.722 266.861 262.69 267.027 262.69C267.219 262.69 267.389 262.723 267.535 262.788C267.682 262.852 267.804 262.942 267.901 263.059C268.001 263.175 268.075 263.312 268.126 263.472C268.176 263.631 268.202 263.806 268.202 263.997V264.243H266.371C266.38 264.346 266.406 264.441 266.446 264.529C266.487 264.617 266.54 264.693 266.605 264.758C266.672 264.822 266.749 264.872 266.837 264.91C266.926 264.945 267.024 264.963 267.13 264.963C267.278 264.963 267.414 264.934 267.538 264.875C267.663 264.817 267.765 264.736 267.843 264.634L268.16 264.932C268.118 264.995 268.063 265.057 267.997 265.117C267.93 265.176 267.852 265.229 267.762 265.276C267.673 265.321 267.572 265.358 267.459 265.386C267.349 265.415 267.227 265.43 267.096 265.43ZM267.025 263.162C266.943 263.162 266.868 263.176 266.798 263.206C266.728 263.235 266.665 263.278 266.61 263.335C266.554 263.39 266.507 263.459 266.468 263.54C266.431 263.62 266.404 263.711 266.388 263.813H267.625V263.77C267.621 263.691 267.605 263.617 267.579 263.545C267.555 263.472 267.518 263.407 267.469 263.35C267.42 263.293 267.359 263.247 267.284 263.213C267.21 263.179 267.124 263.162 267.025 263.162ZM269.674 265.032C269.674 264.975 269.683 264.921 269.701 264.871C269.72 264.82 269.748 264.777 269.784 264.741C269.819 264.704 269.863 264.674 269.915 264.653C269.969 264.632 270.03 264.622 270.099 264.622C270.167 264.622 270.227 264.632 270.279 264.653C270.333 264.674 270.378 264.704 270.414 264.741C270.451 264.777 270.479 264.82 270.497 264.871C270.516 264.921 270.526 264.975 270.526 265.032C270.526 265.089 270.516 265.142 270.497 265.19C270.479 265.238 270.451 265.279 270.414 265.315C270.378 265.351 270.333 265.378 270.279 265.398C270.227 265.419 270.167 265.43 270.099 265.43C270.03 265.43 269.969 265.419 269.915 265.398C269.863 265.378 269.819 265.351 269.784 265.315C269.748 265.279 269.72 265.238 269.701 265.19C269.683 265.142 269.674 265.089 269.674 265.032ZM269.674 262.954C269.674 262.897 269.683 262.843 269.701 262.793C269.72 262.743 269.748 262.699 269.784 262.664C269.819 262.626 269.863 262.597 269.915 262.576C269.969 262.555 270.03 262.544 270.099 262.544C270.167 262.544 270.227 262.555 270.279 262.576C270.333 262.597 270.378 262.626 270.414 262.664C270.451 262.699 270.479 262.743 270.497 262.793C270.516 262.843 270.526 262.897 270.526 262.954C270.526 263.011 270.516 263.064 270.497 263.113C270.479 263.16 270.451 263.201 270.414 263.237C270.378 263.273 270.333 263.302 270.279 263.323C270.227 263.342 270.167 263.352 270.099 263.352C270.03 263.352 269.969 263.342 269.915 263.323C269.863 263.302 269.819 263.273 269.784 263.237C269.748 263.201 269.72 263.16 269.701 263.113C269.683 263.064 269.674 263.011 269.674 262.954ZM276.583 264.556H275.472L275.228 265.381H274.622L275.777 261.826H276.292L277.425 265.381H276.822L276.583 264.556ZM275.621 264.055H276.436L276.034 262.661L275.621 264.055ZM277.975 263.618L278.167 261.826H280.069V262.349H278.651L278.56 263.191C278.617 263.158 278.693 263.127 278.788 263.096C278.882 263.065 278.991 263.049 279.115 263.049C279.282 263.049 279.432 263.077 279.564 263.132C279.697 263.188 279.81 263.267 279.901 263.372C279.992 263.474 280.062 263.599 280.111 263.748C280.16 263.894 280.184 264.06 280.184 264.246C280.184 264.41 280.16 264.565 280.113 264.709C280.068 264.853 279.997 264.978 279.901 265.085C279.806 265.191 279.687 265.275 279.542 265.337C279.397 265.399 279.226 265.43 279.029 265.43C278.881 265.43 278.739 265.409 278.602 265.366C278.467 265.322 278.346 265.259 278.241 265.176C278.135 265.091 278.048 264.986 277.979 264.861C277.913 264.736 277.874 264.59 277.865 264.424H278.429C278.451 264.6 278.516 264.734 278.622 264.827C278.727 264.918 278.863 264.963 279.029 264.963C279.125 264.963 279.209 264.945 279.281 264.91C279.352 264.874 279.412 264.824 279.459 264.761C279.506 264.696 279.541 264.618 279.564 264.529C279.588 264.438 279.601 264.338 279.601 264.231C279.601 264.128 279.587 264.034 279.559 263.948C279.533 263.861 279.493 263.787 279.439 263.726C279.386 263.662 279.319 263.612 279.239 263.577C279.159 263.541 279.067 263.523 278.963 263.523C278.893 263.523 278.833 263.529 278.783 263.54C278.732 263.55 278.687 263.564 278.646 263.584C278.607 263.602 278.571 263.624 278.539 263.65C278.506 263.676 278.473 263.704 278.441 263.733L277.975 263.618ZM281.722 262.954C281.722 262.897 281.731 262.843 281.749 262.793C281.768 262.743 281.796 262.699 281.832 262.664C281.868 262.626 281.912 262.597 281.964 262.576C282.018 262.555 282.079 262.544 282.147 262.544C282.215 262.544 282.275 262.555 282.328 262.576C282.381 262.597 282.426 262.626 282.462 262.664C282.499 262.699 282.527 262.743 282.545 262.793C282.564 262.843 282.574 262.897 282.574 262.954C282.574 263.011 282.564 263.064 282.545 263.113C282.527 263.16 282.499 263.201 282.462 263.237C282.426 263.273 282.381 263.302 282.328 263.323C282.275 263.342 282.215 263.352 282.147 263.352C282.079 263.352 282.018 263.342 281.964 263.323C281.912 263.302 281.868 263.273 281.832 263.237C281.796 263.201 281.768 263.16 281.749 263.113C281.731 263.064 281.722 263.011 281.722 262.954ZM282.415 265.3C282.415 265.387 282.404 265.475 282.381 265.566C282.36 265.658 282.328 265.747 282.286 265.835C282.245 265.923 282.196 266.006 282.137 266.084C282.08 266.164 282.017 266.235 281.947 266.296L281.617 266.123C281.687 266.006 281.741 265.882 281.778 265.752C281.816 265.623 281.834 265.479 281.834 265.32V264.81H282.418L282.415 265.3ZM287.306 265.918C287.395 265.92 287.468 265.896 287.525 265.847C287.582 265.8 287.627 265.738 287.66 265.662C287.692 265.585 287.715 265.499 287.728 265.403C287.741 265.308 287.747 265.215 287.747 265.122V264.724C287.747 264.534 287.792 264.364 287.882 264.216C287.971 264.067 288.111 263.952 288.302 263.872C288.111 263.792 287.971 263.678 287.882 263.528C287.792 263.378 287.747 263.207 287.747 263.015V262.617C287.747 262.524 287.744 262.431 287.738 262.336C287.733 262.24 287.717 262.154 287.689 262.078C287.661 262.001 287.617 261.939 287.557 261.892C287.497 261.843 287.413 261.82 287.306 261.821L287.372 261.482C287.485 261.482 287.587 261.498 287.677 261.531C287.768 261.563 287.848 261.607 287.916 261.663C287.986 261.718 288.045 261.783 288.092 261.858C288.141 261.931 288.18 262.01 288.211 262.095C288.242 262.179 288.264 262.266 288.277 262.356C288.292 262.445 288.299 262.533 288.299 262.617V263.015C288.299 263.243 288.352 263.407 288.458 263.508C288.564 263.608 288.727 263.657 288.946 263.657V264.087C288.727 264.087 288.564 264.137 288.458 264.236C288.352 264.335 288.299 264.498 288.299 264.724V265.122C288.299 265.207 288.291 265.294 288.275 265.383C288.26 265.473 288.236 265.56 288.202 265.645C288.169 265.729 288.128 265.809 288.077 265.884C288.028 265.959 287.969 266.024 287.899 266.079C287.831 266.134 287.752 266.178 287.664 266.211C287.577 266.243 287.479 266.26 287.372 266.26L287.306 265.918ZM233.639 277.032C233.639 276.975 233.648 276.921 233.665 276.871C233.685 276.82 233.713 276.777 233.748 276.741C233.784 276.704 233.828 276.674 233.88 276.653C233.934 276.632 233.995 276.622 234.063 276.622C234.132 276.622 234.192 276.632 234.244 276.653C234.298 276.674 234.343 276.704 234.378 276.741C234.416 276.777 234.443 276.82 234.461 276.871C234.481 276.921 234.491 276.975 234.491 277.032C234.491 277.089 234.481 277.142 234.461 277.19C234.443 277.238 234.416 277.279 234.378 277.315C234.343 277.351 234.298 277.378 234.244 277.398C234.192 277.419 234.132 277.43 234.063 277.43C233.995 277.43 233.934 277.419 233.88 277.398C233.828 277.378 233.784 277.351 233.748 277.315C233.713 277.279 233.685 277.238 233.665 277.19C233.648 277.142 233.639 277.089 233.639 277.032ZM233.639 274.954C233.639 274.897 233.648 274.843 233.665 274.793C233.685 274.743 233.713 274.699 233.748 274.664C233.784 274.626 233.828 274.597 233.88 274.576C233.934 274.555 233.995 274.544 234.063 274.544C234.132 274.544 234.192 274.555 234.244 274.576C234.298 274.597 234.343 274.626 234.378 274.664C234.416 274.699 234.443 274.743 234.461 274.793C234.481 274.843 234.491 274.897 234.491 274.954C234.491 275.011 234.481 275.064 234.461 275.113C234.443 275.16 234.416 275.201 234.378 275.237C234.343 275.273 234.298 275.302 234.244 275.323C234.192 275.342 234.132 275.352 234.063 275.352C233.995 275.352 233.934 275.342 233.88 275.323C233.828 275.302 233.784 275.273 233.748 275.237C233.713 275.201 233.685 275.16 233.665 275.113C233.648 275.064 233.639 275.011 233.639 274.954ZM237.65 274.69C237.697 274.69 237.744 274.692 237.791 274.695C237.839 274.699 237.883 274.703 237.926 274.71C237.97 274.716 238.01 274.724 238.045 274.732C238.081 274.738 238.111 274.747 238.136 274.756L238.053 275.33C237.874 275.289 237.697 275.269 237.523 275.269C237.328 275.269 237.17 275.31 237.049 275.391C236.93 275.472 236.843 275.586 236.786 275.73V277.381H236.202V274.739H236.749L236.776 275.152C236.883 275.009 237.01 274.896 237.157 274.815C237.305 274.732 237.469 274.69 237.65 274.69ZM238.731 276.036C238.731 275.845 238.759 275.668 238.814 275.503C238.871 275.339 238.952 275.197 239.056 275.076C239.162 274.956 239.29 274.861 239.442 274.793C239.593 274.725 239.765 274.69 239.957 274.69C240.151 274.69 240.323 274.725 240.475 274.793C240.628 274.861 240.756 274.956 240.86 275.076C240.966 275.197 241.047 275.339 241.102 275.503C241.157 275.668 241.185 275.845 241.185 276.036V276.087C241.185 276.279 241.157 276.457 241.102 276.622C241.047 276.786 240.966 276.928 240.86 277.049C240.756 277.168 240.628 277.261 240.477 277.33C240.326 277.398 240.154 277.432 239.962 277.432C239.768 277.432 239.595 277.398 239.442 277.33C239.29 277.261 239.162 277.168 239.056 277.049C238.952 276.928 238.871 276.786 238.814 276.622C238.759 276.457 238.731 276.279 238.731 276.087V276.036ZM239.315 276.087C239.315 276.207 239.327 276.32 239.352 276.426C239.378 276.532 239.417 276.626 239.469 276.707C239.522 276.787 239.59 276.85 239.671 276.897C239.753 276.943 239.85 276.966 239.962 276.966C240.071 276.966 240.165 276.943 240.245 276.897C240.326 276.85 240.393 276.787 240.445 276.707C240.499 276.626 240.538 276.532 240.562 276.426C240.588 276.32 240.602 276.207 240.602 276.087V276.036C240.602 275.918 240.588 275.807 240.562 275.701C240.538 275.595 240.499 275.503 240.445 275.423C240.393 275.343 240.326 275.28 240.245 275.232C240.165 275.185 240.069 275.162 239.957 275.162C239.846 275.162 239.75 275.185 239.669 275.232C239.588 275.28 239.521 275.343 239.469 275.423C239.417 275.503 239.378 275.595 239.352 275.701C239.327 275.807 239.315 275.918 239.315 276.036V276.087ZM241.734 276.036C241.734 275.845 241.762 275.668 241.817 275.503C241.874 275.339 241.955 275.197 242.059 275.076C242.165 274.956 242.293 274.861 242.445 274.793C242.596 274.725 242.768 274.69 242.96 274.69C243.154 274.69 243.326 274.725 243.477 274.793C243.63 274.861 243.759 274.956 243.863 275.076C243.969 275.197 244.05 275.339 244.105 275.503C244.16 275.668 244.188 275.845 244.188 276.036V276.087C244.188 276.279 244.16 276.457 244.105 276.622C244.05 276.786 243.969 276.928 243.863 277.049C243.759 277.168 243.631 277.261 243.48 277.33C243.329 277.398 243.157 277.432 242.965 277.432C242.771 277.432 242.598 277.398 242.445 277.33C242.293 277.261 242.165 277.168 242.059 277.049C241.955 276.928 241.874 276.786 241.817 276.622C241.762 276.457 241.734 276.279 241.734 276.087V276.036ZM242.318 276.087C242.318 276.207 242.33 276.32 242.354 276.426C242.38 276.532 242.42 276.626 242.472 276.707C242.525 276.787 242.593 276.85 242.674 276.897C242.756 276.943 242.852 276.966 242.965 276.966C243.074 276.966 243.168 276.943 243.248 276.897C243.329 276.85 243.396 276.787 243.448 276.707C243.502 276.626 243.541 276.532 243.565 276.426C243.591 276.32 243.604 276.207 243.604 276.087V276.036C243.604 275.918 243.591 275.807 243.565 275.701C243.541 275.595 243.502 275.503 243.448 275.423C243.396 275.343 243.329 275.28 243.248 275.232C243.168 275.185 243.072 275.162 242.96 275.162C242.849 275.162 242.753 275.185 242.672 275.232C242.59 275.28 242.524 275.343 242.472 275.423C242.42 275.503 242.38 275.595 242.354 275.701C242.33 275.807 242.318 275.918 242.318 276.036V276.087ZM246.014 274.1V274.739H247.013V275.174H246.014V276.441C246.014 276.54 246.025 276.622 246.048 276.688C246.073 276.753 246.106 276.805 246.148 276.844C246.191 276.883 246.24 276.91 246.297 276.927C246.354 276.941 246.417 276.949 246.485 276.949C246.536 276.949 246.588 276.946 246.642 276.941C246.697 276.935 246.75 276.928 246.8 276.922C246.852 276.914 246.9 276.906 246.942 276.897C246.986 276.888 247.022 276.879 247.052 276.871L247.118 277.273C247.075 277.298 247.024 277.321 246.964 277.342C246.905 277.361 246.841 277.378 246.771 277.391C246.701 277.404 246.628 277.413 246.551 277.42C246.476 277.428 246.402 277.432 246.329 277.432C246.197 277.432 246.076 277.414 245.965 277.378C245.856 277.341 245.762 277.284 245.682 277.208C245.604 277.129 245.542 277.03 245.497 276.91C245.453 276.788 245.431 276.642 245.431 276.473V275.174H244.786V274.739H245.431V274.1H246.014ZM252.816 278.26C252.708 278.26 252.611 278.243 252.523 278.211C252.435 278.178 252.356 278.134 252.286 278.079C252.218 278.024 252.158 277.959 252.108 277.884C252.059 277.809 252.018 277.729 251.983 277.645C251.951 277.56 251.926 277.473 251.91 277.383C251.895 277.295 251.888 277.208 251.888 277.122V276.724C251.888 276.498 251.834 276.335 251.727 276.236C251.621 276.137 251.459 276.087 251.241 276.087V275.657C251.459 275.657 251.621 275.608 251.727 275.508C251.834 275.407 251.888 275.243 251.888 275.015V274.617C251.888 274.533 251.895 274.445 251.908 274.356C251.922 274.266 251.945 274.179 251.976 274.095C252.007 274.01 252.046 273.931 252.093 273.858C252.142 273.783 252.201 273.718 252.269 273.663C252.339 273.607 252.419 273.563 252.508 273.531C252.599 273.498 252.702 273.482 252.816 273.482L252.882 273.821C252.774 273.82 252.691 273.843 252.63 273.892C252.57 273.939 252.526 274.001 252.498 274.078C252.471 274.154 252.454 274.24 252.447 274.336C252.442 274.431 252.44 274.524 252.44 274.617V275.015C252.44 275.209 252.393 275.381 252.301 275.53C252.208 275.68 252.064 275.794 251.869 275.872C252.066 275.95 252.21 276.063 252.301 276.211C252.393 276.36 252.44 276.53 252.44 276.724V277.122C252.44 277.215 252.446 277.308 252.457 277.403C252.47 277.499 252.493 277.585 252.525 277.662C252.56 277.738 252.605 277.8 252.662 277.847C252.719 277.896 252.792 277.92 252.882 277.918L252.816 278.26ZM242.506 283.381V281.174H241.795V280.739H242.506V280.576C242.506 280.405 242.531 280.254 242.581 280.124C242.634 279.992 242.708 279.882 242.804 279.794C242.901 279.705 243.018 279.637 243.155 279.592C243.292 279.545 243.446 279.521 243.617 279.521C243.729 279.521 243.836 279.53 243.936 279.548C244.039 279.564 244.146 279.584 244.256 279.606L244.205 280.07C244.142 280.052 244.067 280.037 243.983 280.024C243.898 280.009 243.803 280.002 243.697 280.002C243.487 280.002 243.333 280.052 243.236 280.151C243.14 280.25 243.092 280.392 243.092 280.576V280.739H244.073V281.174H243.092V283.381H242.506ZM244.737 282.036C244.737 281.845 244.765 281.668 244.82 281.503C244.877 281.339 244.958 281.197 245.062 281.076C245.168 280.956 245.296 280.861 245.448 280.793C245.599 280.725 245.771 280.69 245.963 280.69C246.157 280.69 246.329 280.725 246.48 280.793C246.633 280.861 246.762 280.956 246.866 281.076C246.972 281.197 247.053 281.339 247.108 281.503C247.163 281.668 247.191 281.845 247.191 282.036V282.087C247.191 282.279 247.163 282.457 247.108 282.622C247.053 282.786 246.972 282.928 246.866 283.049C246.762 283.168 246.634 283.261 246.483 283.33C246.331 283.398 246.16 283.432 245.968 283.432C245.774 283.432 245.601 283.398 245.448 283.33C245.296 283.261 245.168 283.168 245.062 283.049C244.958 282.928 244.877 282.786 244.82 282.622C244.765 282.457 244.737 282.279 244.737 282.087V282.036ZM245.321 282.087C245.321 282.207 245.333 282.32 245.357 282.426C245.383 282.532 245.422 282.626 245.475 282.707C245.528 282.787 245.596 282.85 245.677 282.897C245.759 282.943 245.855 282.966 245.968 282.966C246.077 282.966 246.171 282.943 246.251 282.897C246.332 282.85 246.399 282.787 246.451 282.707C246.505 282.626 246.544 282.532 246.568 282.426C246.594 282.32 246.607 282.207 246.607 282.087V282.036C246.607 281.918 246.594 281.807 246.568 281.701C246.544 281.595 246.505 281.503 246.451 281.423C246.399 281.343 246.332 281.28 246.251 281.232C246.171 281.185 246.075 281.162 245.963 281.162C245.852 281.162 245.756 281.185 245.675 281.232C245.593 281.28 245.527 281.343 245.475 281.423C245.422 281.503 245.383 281.595 245.357 281.701C245.333 281.807 245.321 281.918 245.321 282.036V282.087ZM248.375 280.739L248.412 281.105C248.508 280.974 248.623 280.872 248.758 280.8C248.895 280.727 249.046 280.69 249.212 280.69C249.347 280.69 249.47 280.71 249.581 280.749C249.693 280.788 249.789 280.849 249.869 280.932C249.95 281.015 250.013 281.123 250.057 281.254C250.103 281.386 250.125 281.545 250.125 281.73V283.381H249.542V281.74C249.542 281.631 249.529 281.54 249.503 281.467C249.478 281.394 249.443 281.335 249.395 281.291C249.35 281.247 249.294 281.216 249.227 281.198C249.16 281.179 249.085 281.169 249 281.169C248.871 281.169 248.759 281.197 248.663 281.254C248.569 281.311 248.492 281.389 248.434 281.486V283.381H247.848V280.739H248.375ZM252.02 280.1V280.739H253.018V281.174H252.02V282.441C252.02 282.54 252.031 282.622 252.054 282.688C252.079 282.753 252.112 282.805 252.154 282.844C252.197 282.883 252.246 282.91 252.303 282.927C252.36 282.941 252.423 282.949 252.491 282.949C252.542 282.949 252.594 282.946 252.647 282.941C252.703 282.935 252.756 282.928 252.806 282.922C252.858 282.914 252.905 282.906 252.948 282.897C252.992 282.888 253.028 282.879 253.058 282.871L253.123 283.273C253.081 283.298 253.03 283.321 252.97 283.342C252.911 283.361 252.847 283.378 252.777 283.391C252.707 283.404 252.634 283.413 252.557 283.42C252.482 283.428 252.408 283.432 252.335 283.432C252.203 283.432 252.082 283.414 251.971 283.378C251.862 283.341 251.768 283.284 251.688 283.208C251.61 283.129 251.548 283.03 251.502 282.91C251.458 282.788 251.436 282.642 251.436 282.473V281.174H250.792V280.739H251.436V280.1H252.02ZM256.039 282.058H254.083V281.586H256.039V282.058ZM257.52 283.381V281.174H256.81V280.739H257.52V280.576C257.52 280.405 257.546 280.254 257.596 280.124C257.648 279.992 257.722 279.882 257.818 279.794C257.916 279.705 258.033 279.637 258.17 279.592C258.307 279.545 258.46 279.521 258.631 279.521C258.744 279.521 258.85 279.53 258.951 279.548C259.054 279.564 259.16 279.584 259.271 279.606L259.22 280.07C259.156 280.052 259.082 280.037 258.997 280.024C258.913 280.009 258.818 280.002 258.712 280.002C258.502 280.002 258.348 280.052 258.25 280.151C258.154 280.25 258.106 280.392 258.106 280.576V280.739H259.088V281.174H258.106V283.381H257.52ZM261.544 283.381C261.528 283.348 261.514 283.31 261.502 283.266C261.493 283.222 261.484 283.175 261.476 283.125C261.435 283.167 261.388 283.207 261.336 283.244C261.286 283.28 261.229 283.312 261.165 283.339C261.104 283.367 261.036 283.389 260.963 283.405C260.891 283.422 260.814 283.43 260.731 283.43C260.591 283.43 260.464 283.41 260.35 283.371C260.238 283.33 260.141 283.275 260.06 283.205C259.98 283.133 259.918 283.05 259.874 282.954C259.83 282.858 259.808 282.753 259.808 282.641C259.808 282.358 259.913 282.141 260.123 281.992C260.335 281.842 260.637 281.767 261.031 281.767H261.458V281.594C261.458 281.454 261.411 281.343 261.317 281.262C261.222 281.179 261.089 281.137 260.916 281.137C260.838 281.137 260.77 281.147 260.711 281.167C260.653 281.184 260.604 281.21 260.565 281.242C260.526 281.275 260.497 281.313 260.477 281.357C260.457 281.401 260.448 281.448 260.448 281.499H259.864C259.864 281.396 259.888 281.297 259.935 281.201C259.984 281.103 260.055 281.017 260.147 280.942C260.24 280.865 260.353 280.804 260.487 280.759C260.622 280.713 260.776 280.69 260.948 280.69C261.104 280.69 261.249 280.71 261.383 280.749C261.516 280.786 261.632 280.843 261.729 280.92C261.827 280.995 261.904 281.089 261.959 281.203C262.014 281.315 262.042 281.447 262.042 281.599V282.775C262.042 282.891 262.05 282.997 262.066 283.093C262.084 283.187 262.109 283.269 262.142 283.339V283.381H261.544ZM260.841 282.958C260.916 282.958 260.986 282.95 261.051 282.932C261.117 282.912 261.177 282.888 261.229 282.858C261.283 282.827 261.328 282.792 261.366 282.753C261.405 282.714 261.436 282.674 261.458 282.634V282.138H261.087C260.85 282.138 260.674 282.176 260.56 282.253C260.448 282.329 260.392 282.438 260.392 282.58C260.392 282.634 260.4 282.684 260.418 282.731C260.436 282.777 260.463 282.817 260.499 282.851C260.536 282.884 260.583 282.91 260.638 282.929C260.695 282.949 260.763 282.958 260.841 282.958ZM263.199 280.739L263.214 281.018C263.266 280.915 263.336 280.835 263.424 280.778C263.512 280.72 263.617 280.69 263.741 280.69C263.853 280.69 263.946 280.713 264.019 280.759C264.094 280.803 264.15 280.872 264.188 280.966C264.24 280.882 264.307 280.815 264.388 280.766C264.47 280.716 264.568 280.69 264.684 280.69C264.77 280.69 264.849 280.705 264.92 280.734C264.994 280.762 265.055 280.807 265.106 280.869C265.158 280.931 265.198 281.009 265.226 281.105C265.255 281.201 265.269 281.317 265.269 281.452V283.381H264.727V281.447C264.727 281.341 264.705 281.269 264.659 281.23C264.615 281.189 264.558 281.169 264.488 281.169C264.421 281.169 264.369 281.185 264.33 281.218C264.29 281.249 264.262 281.29 264.244 281.342V283.381H263.714V281.447C263.714 281.345 263.693 281.273 263.651 281.232C263.61 281.19 263.554 281.169 263.482 281.169C263.414 281.169 263.36 281.184 263.321 281.213C263.282 281.242 263.252 281.282 263.231 281.333V283.381H262.689V280.739H263.199ZM265.992 280.739H267.401V282.897H268.185V283.381H265.992V282.897H266.812V281.225H265.992V280.739ZM266.764 280.056C266.764 279.965 266.793 279.89 266.852 279.831C266.91 279.771 266.992 279.741 267.098 279.741C267.206 279.741 267.289 279.771 267.347 279.831C267.407 279.89 267.437 279.965 267.437 280.056C267.437 280.147 267.407 280.222 267.347 280.283C267.289 280.341 267.206 280.371 267.098 280.371C266.992 280.371 266.91 280.341 266.852 280.283C266.793 280.222 266.764 280.147 266.764 280.056ZM268.976 279.631H270.404V282.897H271.209V283.381H268.976V282.897H269.815V280.117H268.976V279.631ZM272.918 282.324L273.018 282.641L273.761 280.739H274.408L273.07 283.781C273.04 283.848 273.002 283.92 272.955 283.996C272.908 284.074 272.849 284.147 272.779 284.213C272.711 284.28 272.629 284.335 272.533 284.379C272.437 284.425 272.324 284.448 272.196 284.448C272.142 284.448 272.088 284.443 272.032 284.433C271.978 284.425 271.93 284.415 271.888 284.404L271.971 283.95C271.983 283.95 271.998 283.95 272.018 283.95C272.037 283.951 272.057 283.953 272.079 283.955C272.1 283.956 272.119 283.957 272.137 283.957C272.157 283.959 272.172 283.959 272.184 283.959C272.24 283.959 272.291 283.942 272.335 283.908C272.38 283.876 272.42 283.837 272.455 283.793C272.489 283.751 272.516 283.709 272.538 283.667C272.56 283.626 272.577 283.598 272.586 283.583L272.76 283.256L271.637 280.739H272.281L272.918 282.324ZM275.68 283.032C275.68 282.975 275.689 282.921 275.706 282.871C275.726 282.82 275.754 282.777 275.789 282.741C275.825 282.704 275.869 282.674 275.921 282.653C275.975 282.632 276.036 282.622 276.104 282.622C276.173 282.622 276.233 282.632 276.285 282.653C276.339 282.674 276.384 282.704 276.419 282.741C276.457 282.777 276.484 282.82 276.502 282.871C276.522 282.921 276.532 282.975 276.532 283.032C276.532 283.089 276.522 283.142 276.502 283.19C276.484 283.238 276.457 283.279 276.419 283.315C276.384 283.351 276.339 283.378 276.285 283.398C276.233 283.419 276.173 283.43 276.104 283.43C276.036 283.43 275.975 283.419 275.921 283.398C275.869 283.378 275.825 283.351 275.789 283.315C275.754 283.279 275.726 283.238 275.706 283.19C275.689 283.142 275.68 283.089 275.68 283.032ZM275.68 280.954C275.68 280.897 275.689 280.843 275.706 280.793C275.726 280.743 275.754 280.699 275.789 280.664C275.825 280.626 275.869 280.597 275.921 280.576C275.975 280.555 276.036 280.544 276.104 280.544C276.173 280.544 276.233 280.555 276.285 280.576C276.339 280.597 276.384 280.626 276.419 280.664C276.457 280.699 276.484 280.743 276.502 280.793C276.522 280.843 276.532 280.897 276.532 280.954C276.532 281.011 276.522 281.064 276.502 281.113C276.484 281.16 276.457 281.201 276.419 281.237C276.384 281.273 276.339 281.302 276.285 281.323C276.233 281.342 276.173 281.352 276.104 281.352C276.036 281.352 275.975 281.342 275.921 281.323C275.869 281.302 275.825 281.273 275.789 281.237C275.754 281.201 275.726 281.16 275.706 281.113C275.689 281.064 275.68 281.011 275.68 280.954ZM282.035 281.633L282.664 280.739H283.314L282.381 282.041L283.343 283.381H282.696L282.042 282.456L281.39 283.381H280.738L281.7 282.041L280.768 280.739H281.414L282.035 281.633ZM285.038 281.633L285.667 280.739H286.317L285.384 282.041L286.346 283.381H285.699L285.045 282.456L284.393 283.381H283.741L284.703 282.041L283.77 280.739H284.417L285.038 281.633ZM288.04 281.633L288.67 280.739H289.32L288.387 282.041L289.349 283.381H288.702L288.048 282.456L287.396 283.381H286.744L287.706 282.041L286.773 280.739H287.42L288.04 281.633ZM290.731 280.954C290.731 280.897 290.74 280.843 290.758 280.793C290.777 280.743 290.805 280.699 290.841 280.664C290.877 280.626 290.921 280.597 290.973 280.576C291.026 280.555 291.087 280.544 291.156 280.544C291.224 280.544 291.284 280.555 291.336 280.576C291.39 280.597 291.435 280.626 291.471 280.664C291.508 280.699 291.536 280.743 291.554 280.793C291.573 280.843 291.583 280.897 291.583 280.954C291.583 281.011 291.573 281.064 291.554 281.113C291.536 281.16 291.508 281.201 291.471 281.237C291.435 281.273 291.39 281.302 291.336 281.323C291.284 281.342 291.224 281.352 291.156 281.352C291.087 281.352 291.026 281.342 290.973 281.323C290.921 281.302 290.877 281.273 290.841 281.237C290.805 281.201 290.777 281.16 290.758 281.113C290.74 281.064 290.731 281.011 290.731 280.954ZM291.424 283.3C291.424 283.387 291.413 283.475 291.39 283.566C291.369 283.658 291.337 283.747 291.295 283.835C291.254 283.923 291.205 284.006 291.146 284.084C291.089 284.164 291.025 284.235 290.956 284.296L290.626 284.123C290.696 284.006 290.75 283.882 290.787 283.752C290.824 283.623 290.843 283.479 290.843 283.32V282.81H291.427L291.424 283.3ZM233.253 289.918C233.342 289.92 233.416 289.896 233.473 289.847C233.53 289.8 233.574 289.738 233.607 289.662C233.639 289.585 233.662 289.499 233.675 289.403C233.688 289.308 233.695 289.215 233.695 289.122V288.724C233.695 288.534 233.74 288.364 233.829 288.216C233.919 288.067 234.059 287.952 234.249 287.872C234.059 287.792 233.919 287.678 233.829 287.528C233.74 287.378 233.695 287.207 233.695 287.015V286.617C233.695 286.524 233.692 286.431 233.685 286.336C233.68 286.24 233.664 286.154 233.636 286.078C233.609 286.001 233.565 285.939 233.504 285.892C233.444 285.843 233.36 285.82 233.253 285.821L233.319 285.482C233.433 285.482 233.534 285.498 233.624 285.531C233.715 285.563 233.795 285.607 233.863 285.663C233.933 285.718 233.992 285.783 234.039 285.858C234.088 285.931 234.128 286.01 234.159 286.095C234.19 286.179 234.212 286.266 234.225 286.356C234.239 286.445 234.247 286.533 234.247 286.617V287.015C234.247 287.243 234.299 287.407 234.405 287.508C234.511 287.608 234.674 287.657 234.893 287.657V288.087C234.674 288.087 234.511 288.137 234.405 288.236C234.299 288.335 234.247 288.498 234.247 288.724V289.122C234.247 289.207 234.238 289.294 234.222 289.383C234.207 289.473 234.183 289.56 234.149 289.645C234.116 289.729 234.075 289.809 234.024 289.884C233.976 289.959 233.916 290.024 233.846 290.079C233.778 290.134 233.7 290.178 233.612 290.211C233.524 290.243 233.426 290.26 233.319 290.26L233.253 289.918Z" fill="black"/>
<g clip-path="url(#clip2)">
<rect x="88.9394" y="189.658" width="107.636" height="44.9032" fill="white"/>
<path fill-rule="evenodd" clip-rule="evenodd" d="M148.702 251.14C206.477 251.14 253.313 221.157 253.313 184.17C253.313 147.184 206.477 117.201 148.702 117.201C90.9269 117.201 44.0909 147.184 44.0909 184.17C44.0909 221.157 90.9269 251.14 148.702 251.14Z" fill="url(#paint0_radial)"/>
<path fill-rule="evenodd" clip-rule="evenodd" d="M165.737 199.766C132.565 153.802 112.641 148.32 112.641 148.32C93.6378 147.338 99.1476 189.216 99.1476 189.216C99.1476 189.216 126.313 185.253 165.737 231.193V199.766Z" fill="#D15430"/>
<path fill-rule="evenodd" clip-rule="evenodd" d="M165.729 199.766C198.9 153.802 218.825 148.32 218.825 148.32C237.828 147.338 232.318 189.216 232.318 189.216C232.318 189.216 205.152 185.253 165.729 231.193V199.766Z" fill="#73281B"/>
<path fill-rule="evenodd" clip-rule="evenodd" d="M165.729 205.308C128.121 160.736 104.669 164.046 104.669 164.046L101.758 173.786C101.758 173.786 125.634 168.501 165.729 214.625V205.308Z" fill="#D5663F"/>
<path fill-rule="evenodd" clip-rule="evenodd" d="M165.737 205.308C203.344 160.736 226.796 164.046 226.796 164.046L229.707 173.786C229.707 173.786 205.831 168.501 165.737 214.625V205.308Z" fill="#C5542C"/>
<path fill-rule="evenodd" clip-rule="evenodd" d="M112.606 148.163C112.606 148.163 132.544 153.65 165.736 199.652C198.929 153.65 218.867 148.163 218.867 148.163C237.882 147.181 227.612 164.412 227.612 164.412C227.612 164.412 201.061 163.124 165.736 205.598C130.412 163.124 103.86 164.412 103.86 164.412C103.86 164.412 93.5911 147.181 112.606 148.163Z" fill="white"/>
<path d="M97.8845 221.277C97.8005 221.265 97.7255 221.253 97.6595 221.241C97.5995 221.235 97.5485 221.232 97.5065 221.232C97.4165 221.232 97.3385 221.238 97.2725 221.25C97.2125 221.262 97.1615 221.271 97.1195 221.277C96.8915 220.641 96.6335 219.948 96.3455 219.198C96.0575 218.442 95.7905 217.758 95.5445 217.146C95.3705 216.714 95.0915 216.033 94.7075 215.103C94.8215 215.103 94.9715 215.112 95.1575 215.13C95.3495 215.142 95.4635 215.148 95.4995 215.148C95.6135 215.148 95.7635 215.142 95.9495 215.13C96.1415 215.112 96.2555 215.103 96.2915 215.103C96.4775 215.727 96.7295 216.468 97.0475 217.326C97.3235 218.07 97.6025 218.814 97.8845 219.558C98.1545 218.91 98.3555 218.418 98.4875 218.082C98.6855 217.59 98.8745 217.095 99.0545 216.597C99.2105 216.165 99.3815 215.667 99.5675 215.103L99.9815 215.13L100.395 215.103C100.101 215.781 99.8075 216.468 99.5135 217.164C99.2195 217.854 98.9405 218.529 98.6765 219.189C98.3945 219.897 98.1305 220.593 97.8845 221.277ZM101.088 221.277V216.912C101.19 216.924 101.304 216.936 101.43 216.948C101.562 216.954 101.655 216.957 101.709 216.957C101.841 216.957 101.961 216.951 102.069 216.939C102.177 216.927 102.264 216.918 102.33 216.912V221.277C102.228 221.265 102.153 221.259 102.105 221.259C101.895 221.241 101.763 221.232 101.709 221.232C101.577 221.232 101.457 221.238 101.349 221.25C101.241 221.262 101.154 221.271 101.088 221.277ZM100.998 215.265C100.998 215.079 101.067 214.914 101.205 214.77C101.343 214.626 101.508 214.554 101.7 214.554C101.892 214.554 102.06 214.623 102.204 214.761C102.348 214.899 102.42 215.067 102.42 215.265C102.42 215.457 102.348 215.625 102.204 215.769C102.066 215.907 101.898 215.976 101.7 215.976C101.502 215.976 101.334 215.907 101.196 215.769C101.064 215.625 100.998 215.457 100.998 215.265ZM104.403 216.912L105.411 220.035C105.603 219.519 105.792 219.003 105.978 218.487C106.188 217.899 106.365 217.374 106.509 216.912L106.869 216.939L107.22 216.912C107.226 216.948 107.217 216.99 107.193 217.038C107.175 217.08 107.163 217.11 107.157 217.128C107.079 217.29 106.983 217.506 106.869 217.776C106.809 217.914 106.752 218.049 106.698 218.181C106.494 218.685 106.29 219.189 106.086 219.693C105.864 220.257 105.675 220.785 105.519 221.277C105.417 221.265 105.327 221.253 105.249 221.241C105.177 221.235 105.114 221.232 105.06 221.232C104.964 221.232 104.874 221.238 104.79 221.25C104.712 221.262 104.649 221.271 104.601 221.277C104.493 220.959 104.325 220.476 104.097 219.828C103.839 219.084 103.668 218.601 103.584 218.379C103.458 218.043 103.269 217.554 103.017 216.912C103.119 216.912 103.251 216.921 103.413 216.939C103.581 216.951 103.68 216.957 103.71 216.957C103.812 216.957 103.896 216.954 103.962 216.948C104.226 216.924 104.373 216.912 104.403 216.912ZM109.155 214.437V221.277C109.053 221.265 108.978 221.259 108.93 221.259C108.72 221.241 108.588 221.232 108.534 221.232C108.402 221.232 108.282 221.238 108.174 221.25C108.066 221.262 107.979 221.271 107.913 221.277V214.437C108.015 214.449 108.129 214.461 108.255 214.473C108.387 214.479 108.48 214.482 108.534 214.482C108.666 214.482 108.786 214.476 108.894 214.464C109.002 214.452 109.089 214.443 109.155 214.437ZM110.328 221.277V216.912C110.43 216.924 110.544 216.936 110.67 216.948C110.802 216.954 110.895 216.957 110.949 216.957C111.081 216.957 111.201 216.951 111.309 216.939C111.417 216.927 111.504 216.918 111.57 216.912V221.277C111.468 221.265 111.393 221.259 111.345 221.259C111.135 221.241 111.003 221.232 110.949 221.232C110.817 221.232 110.697 221.238 110.589 221.25C110.481 221.262 110.394 221.271 110.328 221.277ZM110.238 215.265C110.238 215.079 110.307 214.914 110.445 214.77C110.583 214.626 110.748 214.554 110.94 214.554C111.132 214.554 111.3 214.623 111.444 214.761C111.588 214.899 111.66 215.067 111.66 215.265C111.66 215.457 111.588 215.625 111.444 215.769C111.306 215.907 111.138 215.976 110.94 215.976C110.742 215.976 110.574 215.907 110.436 215.769C110.304 215.625 110.238 215.457 110.238 215.265ZM114.597 221.358C113.931 221.358 113.4 221.163 113.004 220.773C112.608 220.383 112.41 219.855 112.41 219.189C112.41 218.469 112.602 217.896 112.986 217.47C113.376 217.044 113.916 216.831 114.606 216.831C115.29 216.831 115.83 217.023 116.226 217.407C116.622 217.791 116.82 218.319 116.82 218.991C116.82 219.693 116.628 220.257 116.244 220.683C115.836 221.133 115.287 221.358 114.597 221.358ZM114.66 217.236C114.324 217.236 114.081 217.422 113.931 217.794C113.805 218.112 113.742 218.568 113.742 219.162C113.742 219.63 113.784 219.999 113.868 220.269C114.006 220.725 114.249 220.953 114.597 220.953C114.915 220.953 115.149 220.728 115.299 220.278C115.425 219.906 115.488 219.429 115.488 218.847C115.488 218.361 115.428 217.983 115.308 217.713C115.164 217.395 114.948 217.236 114.66 217.236ZM117.438 220.134H117.663C117.747 220.368 117.879 220.554 118.059 220.692C118.239 220.83 118.449 220.899 118.689 220.899C118.857 220.899 119.013 220.848 119.157 220.746C119.307 220.638 119.382 220.506 119.382 220.35C119.382 220.128 119.205 219.939 118.851 219.783C118.257 219.519 117.924 219.363 117.852 219.315C117.486 219.057 117.303 218.706 117.303 218.262C117.303 217.818 117.453 217.47 117.753 217.218C118.053 216.96 118.419 216.831 118.851 216.831C119.079 216.831 119.31 216.87 119.544 216.948C119.778 217.02 119.982 217.122 120.156 217.254L119.94 218.046H119.688C119.652 217.842 119.55 217.665 119.382 217.515C119.22 217.365 119.037 217.29 118.833 217.29C118.653 217.29 118.497 217.335 118.365 217.425C118.233 217.509 118.167 217.638 118.167 217.812C118.167 218.034 118.35 218.22 118.716 218.37C119.298 218.604 119.637 218.754 119.733 218.82C120.099 219.072 120.282 219.438 120.282 219.918C120.282 220.344 120.126 220.692 119.814 220.962C119.508 221.226 119.085 221.358 118.545 221.358C118.077 221.358 117.663 221.235 117.303 220.989L117.438 220.134ZM122.43 217.488V220.053C122.43 220.347 122.454 220.557 122.502 220.683C122.556 220.803 122.679 220.863 122.871 220.863C122.985 220.863 123.117 220.842 123.267 220.8V221.151C122.901 221.289 122.589 221.358 122.331 221.358C121.899 221.358 121.593 221.22 121.413 220.944C121.263 220.716 121.188 220.368 121.188 219.9V217.488H120.576C120.588 217.434 120.594 217.38 120.594 217.326C120.594 217.272 120.594 217.23 120.594 217.2V217.101C120.594 217.071 120.594 217.041 120.594 217.011C120.582 216.969 120.576 216.936 120.576 216.912H121.188V215.895C121.338 215.835 121.533 215.751 121.773 215.643C122.013 215.535 122.232 215.433 122.43 215.337V216.912H123.195C123.189 216.966 123.183 217.023 123.177 217.083C123.177 217.137 123.177 217.176 123.177 217.2C123.177 217.248 123.177 217.293 123.177 217.335C123.189 217.407 123.195 217.458 123.195 217.488H122.43ZM124.185 223.563L125.328 221.241L123.51 216.912C123.606 216.912 123.735 216.921 123.897 216.939C124.065 216.951 124.164 216.957 124.194 216.957C124.29 216.957 124.419 216.951 124.581 216.939C124.749 216.921 124.848 216.912 124.878 216.912C125.052 217.398 125.226 217.869 125.4 218.325C125.538 218.679 125.724 219.141 125.958 219.711L126.3 218.793C126.414 218.487 126.531 218.178 126.651 217.866C126.771 217.554 126.882 217.236 126.984 216.912L127.353 216.939L127.722 216.912L126.813 218.973C126.669 219.297 126.456 219.795 126.174 220.467C125.892 221.133 125.679 221.646 125.535 222.006C125.349 222.468 125.151 222.987 124.941 223.563L124.563 223.536L124.185 223.563ZM129.621 214.437V221.277C129.519 221.265 129.444 221.259 129.396 221.259C129.186 221.241 129.054 221.232 129 221.232C128.868 221.232 128.748 221.238 128.64 221.25C128.532 221.262 128.445 221.271 128.379 221.277V214.437C128.481 214.449 128.595 214.461 128.721 214.473C128.853 214.479 128.946 214.482 129 214.482C129.132 214.482 129.252 214.476 129.36 214.464C129.468 214.452 129.555 214.443 129.621 214.437ZM131.811 218.667H133.143C133.143 218.295 133.113 217.998 133.053 217.776C132.957 217.416 132.789 217.236 132.549 217.236C132.261 217.236 132.057 217.413 131.937 217.767C131.853 218.013 131.811 218.313 131.811 218.667ZM134.385 219.099H131.811C131.811 219.621 131.898 220.017 132.072 220.287C132.276 220.611 132.606 220.773 133.062 220.773C133.248 220.773 133.431 220.737 133.611 220.665C133.791 220.593 133.959 220.494 134.115 220.368L134.223 220.449L134.025 220.953C133.641 221.223 133.212 221.358 132.738 221.358C132 221.358 131.439 221.151 131.055 220.737C130.671 220.323 130.479 219.741 130.479 218.991C130.479 218.349 130.662 217.83 131.028 217.434C131.4 217.032 131.904 216.831 132.54 216.831C133.206 216.831 133.689 217.047 133.989 217.479C134.253 217.857 134.385 218.397 134.385 219.099Z" fill="white"/>
</g>
<path d="M200 107V67H1000V105.519" stroke="#4F4F4F" stroke-width="4" stroke-linecap="round" stroke-linejoin="round"/>
</g>
<defs>
<radialGradient id="paint0_radial" cx="0" cy="0" r="1" gradientUnits="userSpaceOnUse" gradientTransform="translate(93.8468 129.804) rotate(40.0806) scale(164.743 168.426)">
<stop stop-color="#36D3D0"/>
<stop offset="1" stop-color="#1A1194"/>
</radialGradient>
<clipPath id="clip0">
<rect width="400" height="321" fill="white"/>
</clipPath>
<clipPath id="clip1">
<rect x="88.9394" y="189.658" width="107.636" height="43.7806" fill="white"/>
</clipPath>
<clipPath id="clip2">
<rect x="88.9394" y="189.658" width="107.636" height="44.9032" fill="white"/>
</clipPath>
</defs>
</svg>
