<svg width="400" height="321" viewBox="0 0 400 321" fill="none" xmlns="http://www.w3.org/2000/svg">
<g clip-path="url(#clip0)">
<path d="M321.454 319.911H76.7273C73.0161 319.911 70 316.891 70 313.176V153.735C70 150.02 73.0161 147 76.7273 147H321.454C325.165 147 328.182 150.02 328.182 153.735V313.176C328.182 316.903 325.177 319.911 321.454 319.911Z" fill="#CCCCCC"/>
<path d="M83.5106 164.624C86.1857 164.624 88.3542 162.453 88.3542 159.775C88.3542 157.097 86.1857 154.925 83.5106 154.925C80.8355 154.925 78.667 157.097 78.667 159.775C78.667 162.453 80.8355 164.624 83.5106 164.624Z" fill="#FC5B57"/>
<path d="M97.6827 164.624C100.358 164.624 102.526 162.453 102.526 159.775C102.526 157.097 100.358 154.925 97.6827 154.925C95.0077 154.925 92.8391 157.097 92.8391 159.775C92.8391 162.453 95.0077 164.624 97.6827 164.624Z" fill="#E5BF3C"/>
<path d="M111.855 164.624C114.53 164.624 116.699 162.453 116.699 159.775C116.699 157.097 114.53 154.925 111.855 154.925C109.18 154.925 107.011 157.097 107.011 159.775C107.011 162.453 109.18 164.624 111.855 164.624Z" fill="#57C038"/>
<path d="M320.423 169.452H77.8485V312.412H320.423V169.452Z" fill="white"/>
<path d="M87.9394 169.452H77.8485V312.468H87.9394V169.452Z" fill="#EEEEEE"/>
<path d="M320.479 169.452H201.182V312.468H320.479V169.452Z" fill="#AAAAAA"/>
<path d="M304.333 169.452H219.121V312.468H304.333V169.452Z" fill="white"/>
<path d="M293.121 197.516H230.333V218.845H293.121V197.516Z" fill="#CCCCCC"/>
<path d="M293.121 248.032H230.333V259.258H293.121V248.032Z" fill="#CCCCCC"/>
<path d="M257.242 277.219H230.333V300.793H257.242V277.219Z" fill="#CCCCCC"/>
<path d="M102.627 203.129H138.035" stroke="#CCCCCC" stroke-width="2" stroke-miterlimit="10"/>
<path d="M94.6667 195.271H117.27" stroke="#CCCCCC" stroke-width="2" stroke-miterlimit="10"/>
<path d="M102.627 210.987H150.312" stroke="#CCCCCC" stroke-width="2" stroke-miterlimit="10"/>
<path d="M102.627 237.929H153.586" stroke="#CCCCCC" stroke-width="2" stroke-miterlimit="10"/>
<path d="M94.6667 230.071H128.101" stroke="#CCCCCC" stroke-width="2" stroke-miterlimit="10"/>
<path d="M94.6667 261.503H144" stroke="#CCCCCC" stroke-width="2" stroke-miterlimit="10"/>
<path d="M94.6667 269.361H186.606" stroke="#CCCCCC" stroke-width="2" stroke-miterlimit="10"/>
<path d="M94.6667 277.219H186.606" stroke="#CCCCCC" stroke-width="2" stroke-miterlimit="10"/>
<path d="M94.6667 285.078H186.606" stroke="#CCCCCC" stroke-width="2" stroke-miterlimit="10"/>
<path d="M94.6667 292.936H169.788" stroke="#CCCCCC" stroke-width="2" stroke-miterlimit="10"/>
<path d="M102.627 218.845H165.011" stroke="#CCCCCC" stroke-width="2" stroke-miterlimit="10"/>
<path d="M230.333 231.193H261.727" stroke="#CCCCCC" stroke-width="2" stroke-miterlimit="10"/>
<path d="M230.333 235.684H293.121" stroke="#CCCCCC" stroke-width="2" stroke-miterlimit="10"/>
<path d="M230.333 265.994H293.121" stroke="#CCCCCC" stroke-width="2" stroke-miterlimit="10"/>
<path d="M260.606 280.587H293.121" stroke="#CCCCCC" stroke-width="2" stroke-miterlimit="10"/>
<path d="M260.606 289.568H293.121" stroke="#CCCCCC" stroke-width="2" stroke-miterlimit="10"/>
<path d="M230.333 240.174H293.121" stroke="#CCCCCC" stroke-width="2" stroke-miterlimit="10"/>
<path d="M230.333 270.484H293.121" stroke="#CCCCCC" stroke-width="2" stroke-miterlimit="10"/>
<path d="M260.606 285.078H293.121" stroke="#CCCCCC" stroke-width="2" stroke-miterlimit="10"/>
<path d="M260.606 294.058H283.03" stroke="#CCCCCC" stroke-width="2" stroke-miterlimit="10"/>
<path d="M230.333 305.284L230.333 313.142" stroke="#CCCCCC" stroke-width="2" stroke-miterlimit="10"/>
<path d="M320.03 180.677H201.182V188.535H320.03V180.677Z" fill="#333333"/>
<g filter="url(#filter0_d)">
<path d="M320.378 169.452H77.8036V181.475H320.378V169.452Z" fill="white"/>
</g>
<g clip-path="url(#clip1)">
<rect x="230.333" y="197.516" width="62.7879" height="25.8194" fill="white"/>
<path fill-rule="evenodd" clip-rule="evenodd" d="M265.195 232.868C298.897 232.868 326.218 215.628 326.218 194.361C326.218 173.093 298.897 155.853 265.195 155.853C231.493 155.853 204.172 173.093 204.172 194.361C204.172 215.628 231.493 232.868 265.195 232.868Z" fill="url(#paint0_radial)"/>
<path fill-rule="evenodd" clip-rule="evenodd" d="M275.132 203.328C255.782 176.899 244.159 173.747 244.159 173.747C233.074 173.182 236.288 197.262 236.288 197.262C236.288 197.262 252.135 194.983 275.132 221.399V203.328Z" fill="#D15430"/>
<path fill-rule="evenodd" clip-rule="evenodd" d="M275.127 203.328C294.477 176.899 306.1 173.747 306.1 173.747C317.185 173.182 313.971 197.262 313.971 197.262C313.971 197.262 298.124 194.983 275.127 221.399V203.328Z" fill="#73281B"/>
<path fill-rule="evenodd" clip-rule="evenodd" d="M275.127 206.515C253.189 180.886 239.509 182.789 239.509 182.789L237.811 188.389C237.811 188.389 251.739 185.351 275.127 211.872V206.515Z" fill="#D5663F"/>
<path fill-rule="evenodd" clip-rule="evenodd" d="M275.132 206.515C297.069 180.886 310.75 182.789 310.75 182.789L312.448 188.389C312.448 188.389 298.52 185.351 275.132 211.872V206.515Z" fill="#C5542C"/>
<path fill-rule="evenodd" clip-rule="evenodd" d="M306.124 173.657C306.124 173.657 294.494 176.811 275.132 203.262V206.682C295.738 182.259 311.226 183 311.226 183C311.226 183 317.216 173.092 306.124 173.657ZM244.139 173.657C244.139 173.657 255.769 176.811 275.132 203.262V206.682C254.526 182.259 239.037 183 239.037 183C239.037 183 233.047 173.092 244.139 173.657Z" fill="white"/>
<path d="M235.459 216.096C235.412 216.09 235.37 216.083 235.334 216.076C235.3 216.073 235.272 216.071 235.249 216.071C235.199 216.071 235.155 216.075 235.119 216.081C235.085 216.088 235.057 216.093 235.034 216.096C234.907 215.743 234.764 215.358 234.604 214.941C234.444 214.521 234.295 214.141 234.159 213.801C234.062 213.561 233.907 213.183 233.694 212.666C233.757 212.666 233.84 212.671 233.944 212.681C234.05 212.688 234.114 212.691 234.134 212.691C234.197 212.691 234.28 212.688 234.384 212.681C234.49 212.671 234.554 212.666 234.574 212.666C234.677 213.013 234.817 213.425 234.994 213.901C235.147 214.315 235.302 214.728 235.459 215.141C235.609 214.781 235.72 214.508 235.794 214.321C235.904 214.048 236.009 213.773 236.109 213.496C236.195 213.256 236.29 212.98 236.394 212.666L236.624 212.681L236.854 212.666C236.69 213.043 236.527 213.425 236.364 213.811C236.2 214.195 236.045 214.57 235.899 214.936C235.742 215.33 235.595 215.716 235.459 216.096ZM237.239 216.096V213.671C237.295 213.678 237.359 213.685 237.429 213.691C237.502 213.695 237.554 213.696 237.584 213.696C237.657 213.696 237.724 213.693 237.784 213.686C237.844 213.68 237.892 213.675 237.929 213.671V216.096C237.872 216.09 237.83 216.086 237.804 216.086C237.687 216.076 237.614 216.071 237.584 216.071C237.51 216.071 237.444 216.075 237.384 216.081C237.324 216.088 237.275 216.093 237.239 216.096ZM237.189 212.756C237.189 212.653 237.227 212.561 237.304 212.481C237.38 212.401 237.472 212.361 237.579 212.361C237.685 212.361 237.779 212.4 237.859 212.476C237.939 212.553 237.979 212.646 237.979 212.756C237.979 212.863 237.939 212.956 237.859 213.036C237.782 213.113 237.689 213.151 237.579 213.151C237.469 213.151 237.375 213.113 237.299 213.036C237.225 212.956 237.189 212.863 237.189 212.756ZM239.08 213.671L239.64 215.406C239.747 215.12 239.852 214.833 239.955 214.546C240.072 214.22 240.17 213.928 240.25 213.671L240.45 213.686L240.645 213.671C240.648 213.691 240.643 213.715 240.63 213.741C240.62 213.765 240.613 213.781 240.61 213.791C240.567 213.881 240.513 214.001 240.45 214.151C240.417 214.228 240.385 214.303 240.355 214.376C240.242 214.656 240.128 214.936 240.015 215.216C239.892 215.53 239.787 215.823 239.7 216.096C239.643 216.09 239.593 216.083 239.55 216.076C239.51 216.073 239.475 216.071 239.445 216.071C239.392 216.071 239.342 216.075 239.295 216.081C239.252 216.088 239.217 216.093 239.19 216.096C239.13 215.92 239.037 215.651 238.91 215.291C238.767 214.878 238.672 214.61 238.625 214.486C238.555 214.3 238.45 214.028 238.31 213.671C238.367 213.671 238.44 213.676 238.53 213.686C238.623 213.693 238.678 213.696 238.695 213.696C238.752 213.696 238.798 213.695 238.835 213.691C238.982 213.678 239.063 213.671 239.08 213.671ZM241.72 212.296V216.096C241.663 216.09 241.622 216.086 241.595 216.086C241.478 216.076 241.405 216.071 241.375 216.071C241.302 216.071 241.235 216.075 241.175 216.081C241.115 216.088 241.067 216.093 241.03 216.096V212.296C241.087 212.303 241.15 212.31 241.22 212.316C241.293 212.32 241.345 212.321 241.375 212.321C241.448 212.321 241.515 212.318 241.575 212.311C241.635 212.305 241.683 212.3 241.72 212.296ZM242.372 216.096V213.671C242.428 213.678 242.492 213.685 242.562 213.691C242.635 213.695 242.687 213.696 242.717 213.696C242.79 213.696 242.857 213.693 242.917 213.686C242.977 213.68 243.025 213.675 243.062 213.671V216.096C243.005 216.09 242.963 216.086 242.937 216.086C242.82 216.076 242.747 216.071 242.717 216.071C242.643 216.071 242.577 216.075 242.517 216.081C242.457 216.088 242.408 216.093 242.372 216.096ZM242.322 212.756C242.322 212.653 242.36 212.561 242.437 212.481C242.513 212.401 242.605 212.361 242.712 212.361C242.818 212.361 242.912 212.4 242.992 212.476C243.072 212.553 243.112 212.646 243.112 212.756C243.112 212.863 243.072 212.956 242.992 213.036C242.915 213.113 242.822 213.151 242.712 213.151C242.602 213.151 242.508 213.113 242.432 213.036C242.358 212.956 242.322 212.863 242.322 212.756ZM244.743 216.141C244.373 216.141 244.078 216.033 243.858 215.816C243.638 215.6 243.528 215.306 243.528 214.936C243.528 214.536 243.635 214.218 243.848 213.981C244.065 213.745 244.365 213.626 244.748 213.626C245.128 213.626 245.428 213.733 245.648 213.946C245.868 214.16 245.978 214.453 245.978 214.826C245.978 215.216 245.872 215.53 245.658 215.766C245.432 216.016 245.127 216.141 244.743 216.141ZM244.778 213.851C244.592 213.851 244.457 213.955 244.373 214.161C244.303 214.338 244.268 214.591 244.268 214.921C244.268 215.181 244.292 215.386 244.338 215.536C244.415 215.79 244.55 215.916 244.743 215.916C244.92 215.916 245.05 215.791 245.133 215.541C245.203 215.335 245.238 215.07 245.238 214.746C245.238 214.476 245.205 214.266 245.138 214.116C245.058 213.94 244.938 213.851 244.778 213.851ZM246.322 215.461H246.447C246.493 215.591 246.567 215.695 246.667 215.771C246.767 215.848 246.883 215.886 247.017 215.886C247.11 215.886 247.197 215.858 247.277 215.801C247.36 215.741 247.402 215.668 247.402 215.581C247.402 215.458 247.303 215.353 247.107 215.266C246.777 215.12 246.592 215.033 246.552 215.006C246.348 214.863 246.247 214.668 246.247 214.421C246.247 214.175 246.33 213.981 246.497 213.841C246.663 213.698 246.867 213.626 247.107 213.626C247.233 213.626 247.362 213.648 247.492 213.691C247.622 213.731 247.735 213.788 247.832 213.861L247.712 214.301H247.572C247.552 214.188 247.495 214.09 247.402 214.006C247.312 213.923 247.21 213.881 247.097 213.881C246.997 213.881 246.91 213.906 246.837 213.956C246.763 214.003 246.727 214.075 246.727 214.171C246.727 214.295 246.828 214.398 247.032 214.481C247.355 214.611 247.543 214.695 247.597 214.731C247.8 214.871 247.902 215.075 247.902 215.341C247.902 215.578 247.815 215.771 247.642 215.921C247.472 216.068 247.237 216.141 246.937 216.141C246.677 216.141 246.447 216.073 246.247 215.936L246.322 215.461ZM249.095 213.991V215.416C249.095 215.58 249.108 215.696 249.135 215.766C249.165 215.833 249.233 215.866 249.34 215.866C249.403 215.866 249.477 215.855 249.56 215.831V216.026C249.357 216.103 249.183 216.141 249.04 216.141C248.8 216.141 248.63 216.065 248.53 215.911C248.447 215.785 248.405 215.591 248.405 215.331V213.991H248.065C248.072 213.961 248.075 213.931 248.075 213.901C248.075 213.871 248.075 213.848 248.075 213.831V213.776C248.075 213.76 248.075 213.743 248.075 213.726C248.068 213.703 248.065 213.685 248.065 213.671H248.405V213.106C248.488 213.073 248.597 213.026 248.73 212.966C248.863 212.906 248.985 212.85 249.095 212.796V213.671H249.52C249.517 213.701 249.513 213.733 249.51 213.766C249.51 213.796 249.51 213.818 249.51 213.831C249.51 213.858 249.51 213.883 249.51 213.906C249.517 213.946 249.52 213.975 249.52 213.991H249.095ZM250.07 217.366L250.705 216.076L249.695 213.671C249.748 213.671 249.82 213.676 249.91 213.686C250.003 213.693 250.058 213.696 250.075 213.696C250.128 213.696 250.2 213.693 250.29 213.686C250.383 213.676 250.438 213.671 250.455 213.671C250.552 213.941 250.648 214.203 250.745 214.456C250.822 214.653 250.925 214.91 251.055 215.226L251.245 214.716C251.308 214.546 251.373 214.375 251.44 214.201C251.507 214.028 251.568 213.851 251.625 213.671L251.83 213.686L252.035 213.671L251.53 214.816C251.45 214.996 251.332 215.273 251.175 215.646C251.018 216.016 250.9 216.301 250.82 216.501C250.717 216.758 250.607 217.046 250.49 217.366L250.28 217.351L250.07 217.366ZM253.09 212.296V216.096C253.033 216.09 252.992 216.086 252.965 216.086C252.848 216.076 252.775 216.071 252.745 216.071C252.672 216.071 252.605 216.075 252.545 216.081C252.485 216.088 252.437 216.093 252.4 216.096V212.296C252.457 212.303 252.52 212.31 252.59 212.316C252.663 212.32 252.715 212.321 252.745 212.321C252.818 212.321 252.885 212.318 252.945 212.311C253.005 212.305 253.053 212.3 253.09 212.296ZM254.307 214.646H255.047C255.047 214.44 255.03 214.275 254.997 214.151C254.943 213.951 254.85 213.851 254.717 213.851C254.557 213.851 254.443 213.95 254.377 214.146C254.33 214.283 254.307 214.45 254.307 214.646ZM255.737 214.886H254.307C254.307 215.176 254.355 215.396 254.452 215.546C254.565 215.726 254.748 215.816 255.002 215.816C255.105 215.816 255.207 215.796 255.307 215.756C255.407 215.716 255.5 215.661 255.587 215.591L255.647 215.636L255.537 215.916C255.323 216.066 255.085 216.141 254.822 216.141C254.412 216.141 254.1 216.026 253.887 215.796C253.673 215.566 253.567 215.243 253.567 214.826C253.567 214.47 253.668 214.181 253.872 213.961C254.078 213.738 254.358 213.626 254.712 213.626C255.082 213.626 255.35 213.746 255.517 213.986C255.663 214.196 255.737 214.496 255.737 214.886Z" fill="white"/>
</g>
<path d="M-600 107V67H200V105.519" stroke="#4F4F4F" stroke-width="4" stroke-linecap="round" stroke-linejoin="round"/>
<path d="M105 156C105 159.669 97.2129 162.049 96.141 165.358C95.032 168.791 99.899 175.311 97.8413 178.174C95.759 181.062 88.0705 178.409 85.1996 180.504C82.3657 182.586 82.5012 190.767 79.1005 191.882C75.8107 192.961 71.1533 186.28 67.5062 186.28C63.859 186.28 59.2016 192.948 55.9118 191.882C52.4988 190.767 52.6466 182.586 49.8127 180.504C46.9418 178.409 39.2533 181.062 37.171 178.174C35.101 175.323 39.9803 168.791 38.8714 165.358C37.7871 162.049 30 159.669 30 156C30 152.331 37.7871 149.951 38.859 146.642C39.968 143.209 35.101 136.689 37.1587 133.826C39.241 130.938 46.9295 133.591 49.8004 131.496C52.6343 129.414 52.4988 121.233 55.8995 120.118C59.1893 119.039 63.8467 125.72 67.4938 125.72C71.141 125.72 75.7984 119.052 79.0882 120.118C82.5012 121.233 82.3534 129.414 85.1873 131.496C88.0582 133.591 95.7467 130.938 97.829 133.826C99.899 136.677 95.0197 143.209 96.1286 146.642C97.2129 149.939 105 152.331 105 156Z" fill="white" stroke="#4F4F4F" stroke-width="4" stroke-miterlimit="10"/>
<path d="M59.8619 168.095L56.466 169.004L46.9498 159.932L49.8555 170.776L46.4596 171.686L42.0435 155.205L45.4394 154.295L54.973 163.387L52.0612 152.52L55.4458 151.613L59.8619 168.095ZM70.8295 157.5L64.3095 159.247L65.4924 163.662L73.1444 161.612L73.8753 164.34L62.8276 167.3L58.4115 150.819L69.4366 147.865L70.1736 150.615L62.5443 152.66L63.5968 156.587L70.1168 154.84L70.8295 157.5ZM87.4299 155.612L86.5063 143.291L89.8908 142.384L90.6507 159.845L87.2323 160.761L81.5954 150.454L81.8669 162.198L78.4484 163.114L70.3761 147.613L73.7606 146.706L79.1267 157.813L78.7072 145.381L81.5824 144.61L87.4299 155.612Z" fill="#4F4F4F"/>
</g>
<defs>
<filter id="filter0_d" x="76.8036" y="169.452" width="244.574" height="14.0228" filterUnits="userSpaceOnUse" color-interpolation-filters="sRGB">
<feFlood flood-opacity="0" result="BackgroundImageFix"/>
<feColorMatrix in="SourceAlpha" type="matrix" values="0 0 0 0 0 0 0 0 0 0 0 0 0 0 0 0 0 0 127 0"/>
<feOffset dy="1"/>
<feGaussianBlur stdDeviation="0.5"/>
<feColorMatrix type="matrix" values="0 0 0 0 0 0 0 0 0 0 0 0 0 0 0 0 0 0 0.25 0"/>
<feBlend mode="normal" in2="BackgroundImageFix" result="effect1_dropShadow"/>
<feBlend mode="normal" in="SourceGraphic" in2="effect1_dropShadow" result="shape"/>
</filter>
<radialGradient id="paint0_radial" cx="0" cy="0" r="1" gradientUnits="userSpaceOnUse" gradientTransform="translate(233.196 163.1) rotate(39.675) scale(95.5331 97.4195)">
<stop stop-color="#36D3D0"/>
<stop offset="1" stop-color="#1A1194"/>
</radialGradient>
<clipPath id="clip0">
<rect width="400" height="321" fill="white"/>
</clipPath>
<clipPath id="clip1">
<rect x="230.333" y="197.516" width="62.7879" height="25.8194" fill="white"/>
</clipPath>
</defs>
</svg>
